<?xml version="1.0" encoding="UTF-8"?>
<!DOCTYPE svg PUBLIC "-//W3C//DTD SVG 1.1//EN" "http://www.w3.org/Graphics/SVG/1.1/DTD/svg11.dtd">
<!-- Creator: CorelDRAW -->
<svg xmlns="http://www.w3.org/2000/svg" xml:space="preserve" width="16.9332mm" height="11.0066mm" version="1.1" style="shape-rendering:geometricPrecision; text-rendering:geometricPrecision; image-rendering:optimizeQuality; fill-rule:evenodd; clip-rule:evenodd"
viewBox="0 0 1693.32 1100.66"
 xmlns:xlink="http://www.w3.org/1999/xlink"
 xmlns:xodm="http://www.corel.com/coreldraw/odm/2003">
 <defs>
  <style type="text/css">
   <![CDATA[
    .fil1 {fill:white}
    .fil0 {fill:white;fill-rule:nonzero}
   ]]>
  </style>
 </defs>
 <g id="Camada_x0020_1">
  <metadata id="CorelCorpID_0Corel-Layer"/>
  <g id="_2964812514672">
   <path class="fil0" d="M373.19 833.66l-11.48 -42.75 -11.49 42.75 22.97 0zm-30.47 -75.43l37.96 0 39.34 121.44 -34.47 0 -6.39 -23.77 -34.92 0 -6.4 23.77 -34.64 0 39.52 -121.44z"/>
   <path class="fil0" d="M426.29 754.82l33.08 0 0 89.09c0,3.32 0.72,5.85 2.18,7.62 1.44,1.77 3.56,2.65 6.35,2.65 1.39,0 2.9,-0.22 4.52,-0.68 1.64,-0.45 3.14,-1.09 4.54,-1.89l4.17 23.95c-3.95,1.83 -8.38,3.24 -13.32,4.27 -4.92,1.03 -9.59,1.54 -14.01,1.54 -8.83,0 -15.62,-2.24 -20.37,-6.75 -4.76,-4.51 -7.14,-10.92 -7.14,-19.24l0 -100.56z"/>
   <path class="fil0" d="M538.94 854.01c2.43,0 4.67,-0.49 6.69,-1.47 2.04,-0.98 3.81,-2.36 5.32,-4.11 1.5,-1.75 2.67,-3.78 3.48,-6.08 0.81,-2.3 1.22,-4.76 1.22,-7.38 0,-2.74 -0.44,-5.21 -1.3,-7.4 -0.88,-2.18 -2.12,-4.08 -3.75,-5.67 -1.62,-1.58 -3.55,-2.8 -5.75,-3.68 -2.21,-0.88 -4.64,-1.32 -7.31,-1.32 -1.5,0 -2.99,0.19 -4.43,0.57 -1.46,0.36 -2.82,0.9 -4.1,1.59 -1.28,0.69 -2.53,1.57 -3.74,2.64 -1.21,1.06 -2.36,2.34 -3.4,3.83l0 15.31c1.04,2.49 2.46,4.74 4.27,6.75 1.81,2.01 3.8,3.58 6.01,4.71 2.2,1.13 4.45,1.71 6.79,1.71zm11.49 27.36c-6.62,0 -12.36,-1.26 -17.24,-3.78 -4.87,-2.52 -8.64,-6.19 -11.32,-11.02l0 49.53 -33.07 0 0 -125.2 28.72 0 0 13.61c3.24,-4.82 7.29,-8.52 12.1,-11.1 4.82,-2.59 10.65,-3.88 17.5,-3.88 6.16,0 11.77,1.12 16.89,3.36 5.11,2.26 9.57,5.45 13.4,9.59 3.83,4.16 6.79,8.98 8.88,14.47 2.09,5.5 3.13,11.56 3.13,18.17 0,8.86 -1.68,16.76 -5.04,23.72 -3.37,6.95 -7.98,12.45 -13.84,16.48 -5.87,4.04 -12.56,6.05 -20.11,6.05z"/>
   <path class="fil0" d="M693.54 879.67l-33.08 0 0 -49.4c0,-4.32 -1.01,-7.48 -3.05,-9.42 -2.03,-1.95 -4.56,-2.92 -7.57,-2.92 -1.4,0 -3.11,0.49 -5.13,1.45 -2.04,0.98 -3.98,2.38 -5.84,4.21 -1.86,1.83 -3.31,3.99 -4.35,6.48l0 49.6 -33.08 0 0 -124.84 33.08 0 0 49.5c3.24,-4.83 7.51,-8.49 12.8,-11.01 5.28,-2.52 11.11,-3.79 17.49,-3.79 6.51,0 11.67,1.04 15.5,3.12 3.83,2.07 6.67,4.73 8.53,7.99 1.85,3.25 3.11,6.72 3.74,10.42 0.64,3.7 0.96,7.18 0.96,10.42l0 58.19z"/>
   <path class="fil0" d="M758.13 854.88c1.28,-0.86 2.32,-1.81 3.14,-2.83 0.8,-1.02 1.21,-2.07 1.21,-3.15l0 -6.31c-1.86,-0.64 -3.98,-1.18 -6.35,-1.61 -2.39,-0.44 -4.51,-0.65 -6.35,-0.65 -3.95,0 -7.29,0.91 -10.02,2.75 -2.74,1.84 -4.09,4.15 -4.09,6.96 0,1.5 0.46,2.88 1.38,4.12 0.94,1.23 2.22,2.2 3.84,2.91 1.62,0.7 3.48,1.04 5.56,1.04 1.99,0 4.05,-0.29 6.2,-0.89 2.14,-0.58 3.97,-1.36 5.48,-2.34zm-53.63 -1.91c0,-5.93 1.68,-11.18 5.05,-15.71 3.36,-4.54 8.05,-8.1 14.02,-10.68 5.98,-2.58 12.8,-3.87 20.46,-3.87 3.6,0 6.99,0.29 10.18,0.86 3.19,0.57 5.94,1.42 8.27,2.56l0 -2.73c0,-4.06 -1.24,-7.05 -3.74,-9.04 -2.5,-1.95 -6.54,-2.93 -12.1,-2.93 -5.11,0 -9.9,0.82 -14.37,2.47 -4.46,1.66 -9.13,4.09 -14.02,7.27l-9.57 -20.17c6.15,-3.88 12.63,-6.76 19.41,-8.64 6.79,-1.88 14.08,-2.83 21.85,-2.83 14.51,0 25.74,3.15 33.69,9.44 7.95,6.29 11.93,15.61 11.93,27.95l0 17.04c0,3 0.46,5.09 1.39,6.25 0.92,1.17 2.55,1.87 4.87,2.09l0 27.36c-2.67,0.58 -5.19,1 -7.57,1.29 -2.38,0.28 -4.5,0.42 -6.35,0.42 -5.93,0 -10.42,-1.05 -13.5,-3.15 -3.07,-2.11 -5.07,-5.22 -6.01,-9.32l-0.68 -3.26c-4.08,5.13 -8.78,9.04 -14.11,11.72 -5.34,2.67 -11.03,4.01 -17.07,4.01 -6.04,0 -11.49,-1.23 -16.35,-3.69 -4.88,-2.46 -8.72,-5.86 -11.5,-10.17 -2.78,-4.31 -4.18,-9.15 -4.18,-14.54z"/>
   <path class="fil0" d="M819.58 818.95c0,7.3 1.28,14.28 3.84,20.95 2.55,6.67 6.12,12.63 10.71,17.87 4.57,5.25 10.03,9.41 16.36,12.49 6.33,3.08 13.25,4.62 20.8,4.62 7.66,0 14.68,-1.6 21.06,-4.79 6.39,-3.19 11.85,-7.47 16.38,-12.83 4.51,-5.36 8,-11.34 10.45,-17.96 2.43,-6.62 3.65,-13.39 3.65,-20.35 0,-7.3 -1.29,-14.28 -3.84,-20.95 -2.55,-6.67 -6.15,-12.62 -10.79,-17.87 -4.65,-5.24 -10.13,-9.4 -16.44,-12.48 -6.34,-3.08 -13.16,-4.62 -20.47,-4.62 -7.78,0 -14.82,1.6 -21.15,4.78 -6.34,3.2 -11.76,7.48 -16.27,12.83 -4.54,5.36 -8.06,11.35 -10.54,17.96 -2.51,6.61 -3.75,13.4 -3.75,20.35zm51.71 61.58c-8.6,0 -16.42,-1.74 -23.5,-5.23 -7.08,-3.47 -13.17,-8.12 -18.28,-13.94 -5.1,-5.81 -9.06,-12.39 -11.84,-19.75 -2.79,-7.35 -4.18,-14.89 -4.18,-22.66 0,-8.1 1.45,-15.82 4.35,-23.17 2.9,-7.35 7,-13.91 12.27,-19.67 5.29,-5.76 11.44,-10.32 18.46,-13.69 7.02,-3.36 14.59,-5.04 22.72,-5.04 8.58,0 16.42,1.77 23.5,5.31 7.09,3.52 13.16,8.26 18.19,14.19 5.05,5.93 8.98,12.54 11.76,19.84 2.79,7.29 4.18,14.71 4.18,22.23 0,8.21 -1.45,15.99 -4.35,23.36 -2.9,7.34 -6.97,13.91 -12.19,19.66 -5.22,5.76 -11.35,10.28 -18.37,13.6 -7.02,3.3 -14.6,4.96 -22.72,4.96z"/>
   <path class="fil0" d="M1022.59 850.3l0 -30.54c-1.62,-4.67 -4.35,-8.84 -8.19,-12.55 -3.82,-3.7 -8.12,-6.66 -12.88,-8.88 -4.76,-2.2 -9.52,-3.32 -14.28,-3.32 -5.56,0 -10.59,1.14 -15.05,3.41 -4.47,2.28 -8.33,5.36 -11.58,9.21 -3.25,3.87 -5.72,8.23 -7.4,13.06 -1.68,4.84 -2.52,9.82 -2.52,14.94 0,5.35 0.96,10.44 2.86,15.28 1.93,4.83 4.64,9.15 8.19,12.96 3.54,3.82 7.6,6.77 12.19,8.88 4.59,2.11 9.54,3.16 14.88,3.16 3.37,0 6.94,-0.65 10.71,-1.97 3.77,-1.31 7.38,-3.16 10.8,-5.54 3.42,-2.39 6.23,-5.16 8.44,-8.28 2.21,-3.13 3.48,-6.4 3.83,-9.82zm-78 -14.67c0,-8.3 1.84,-15.93 5.49,-22.88 3.66,-6.94 8.62,-12.54 14.88,-16.82 6.27,-4.26 13.4,-6.4 21.42,-6.4 8.12,0 15.32,2.14 21.59,6.41 6.27,4.29 11.13,9.33 14.62,15.14l0 -56.26 5.92 0 0 115.95c0,1.14 0.29,2.05 0.87,2.74 0.59,0.68 1.34,1.02 2.26,1.02l0 5.13c-1.39,0.12 -2.43,0.06 -3.13,-0.16 -1.63,-0.45 -2.96,-1.37 -4,-2.75 -1.05,-1.36 -1.57,-2.83 -1.57,-4.43l0 -10.78c-3.71,5.93 -8.76,10.72 -15.14,14.37 -6.4,3.65 -12.95,5.46 -19.69,5.46 -6.26,0 -12.06,-1.28 -17.4,-3.84 -5.34,-2.55 -9.96,-6.02 -13.84,-10.4 -3.9,-4.39 -6.92,-9.31 -9.07,-14.78 -2.14,-5.45 -3.21,-11.03 -3.21,-16.72z"/>
   <path class="fil0" d="M1056.53 835.8c0,7.39 1.68,14.13 5.05,20.23 3.36,6.08 7.89,10.92 13.59,14.5 5.68,3.58 11.95,5.38 18.8,5.38 6.95,0 13.29,-1.83 18.97,-5.47 5.69,-3.64 10.24,-8.55 13.67,-14.76 3.42,-6.2 5.13,-12.94 5.13,-20.23 0,-7.39 -1.71,-14.16 -5.13,-20.3 -3.43,-6.15 -7.98,-11.05 -13.67,-14.67 -5.68,-3.64 -11.96,-5.47 -18.8,-5.47 -6.73,0 -12.96,1.85 -18.71,5.55 -5.75,3.69 -10.34,8.65 -13.77,14.84 -3.42,6.21 -5.13,13.01 -5.13,20.4zm37.61 45.58c-6.04,0 -11.72,-1.19 -17.07,-3.59 -5.33,-2.38 -9.99,-5.71 -13.92,-9.98 -3.94,-4.27 -7.03,-9.16 -9.23,-14.68 -2.21,-5.52 -3.3,-11.35 -3.3,-17.5 0,-6.27 1.12,-12.19 3.39,-17.76 2.26,-5.57 5.36,-10.49 9.31,-14.76 3.95,-4.27 8.59,-7.59 13.94,-9.99 5.32,-2.38 10.96,-3.59 16.88,-3.59 6.03,0 11.69,1.21 16.98,3.59 5.27,2.4 9.91,5.72 13.92,9.99 4,4.27 7.13,9.19 9.4,14.76 2.27,5.57 3.4,11.49 3.4,17.76 0,6.15 -1.1,11.98 -3.31,17.5 -2.2,5.52 -5.31,10.41 -9.31,14.68 -4.01,4.27 -8.65,7.6 -13.94,9.98 -5.28,2.4 -11,3.59 -17.14,3.59z"/>
   <path class="fil0" d="M1231.69 879.67l-5.92 0 0 -49.5c0,-12.07 -1.78,-20.94 -5.31,-26.62 -3.55,-5.7 -9.14,-8.54 -16.81,-8.54 -5.45,0 -10.78,1.28 -16.01,3.84 -5.22,2.56 -9.78,6.03 -13.66,10.4 -3.89,4.39 -6.71,9.36 -8.46,14.94l0 55.48 -5.91 0 0 -88.77 5.74 0 0 22.19c2.44,-4.66 5.71,-8.76 9.84,-12.29 4.11,-3.52 8.73,-6.29 13.84,-8.28 5.12,-1.99 10.33,-2.99 15.67,-2.99 4.76,0 8.84,0.86 12.27,2.57 3.42,1.71 6.21,4.21 8.36,7.51 2.15,3.3 3.74,7.44 4.79,12.46 1.04,5.01 1.57,10.81 1.57,17.41l0 50.19z"/>
   <path class="fil0" d="M1295.58 876.42c-0.23,0.11 -1.16,0.6 -2.79,1.45 -1.62,0.86 -3.68,1.66 -6.18,2.4 -2.49,0.74 -5.37,1.1 -8.62,1.1 -3.01,0 -5.8,-0.57 -8.35,-1.72 -2.56,-1.15 -4.59,-2.85 -6.09,-5.09 -1.52,-2.23 -2.27,-4.91 -2.27,-8.01l0 -70.52 -12.88 0 0 -5.13 12.88 0 0 -30.61 5.92 0 0 30.61 21.42 0 0 5.13 -21.42 0 0 69.69c0.24,3.34 1.52,5.87 3.83,7.6 2.32,1.72 5,2.59 8.01,2.59 3.84,0 7.11,-0.66 9.85,-1.97 2.71,-1.31 4.19,-2.08 4.43,-2.32l2.26 4.8z"/>
   <path class="fil0" d="M1308.81 835.8c0,7.39 1.68,14.13 5.05,20.23 3.36,6.08 7.89,10.92 13.59,14.5 5.67,3.58 11.95,5.38 18.8,5.38 6.95,0 13.29,-1.83 18.97,-5.47 5.68,-3.64 10.24,-8.55 13.66,-14.76 3.43,-6.2 5.14,-12.94 5.14,-20.23 0,-7.39 -1.71,-14.16 -5.14,-20.3 -3.42,-6.15 -7.98,-11.05 -13.66,-14.67 -5.68,-3.64 -11.96,-5.47 -18.81,-5.47 -6.72,0 -12.96,1.85 -18.71,5.55 -5.75,3.69 -10.33,8.65 -13.76,14.84 -3.42,6.21 -5.13,13.01 -5.13,20.4zm37.6 45.58c-6.04,0 -11.71,-1.19 -17.06,-3.59 -5.33,-2.38 -9.99,-5.71 -13.92,-9.98 -3.95,-4.27 -7.03,-9.16 -9.23,-14.68 -2.21,-5.52 -3.31,-11.35 -3.31,-17.5 0,-6.27 1.13,-12.19 3.4,-17.76 2.26,-5.57 5.36,-10.49 9.31,-14.76 3.95,-4.27 8.59,-7.59 13.93,-9.99 5.33,-2.38 10.97,-3.59 16.88,-3.59 6.04,0 11.7,1.21 16.98,3.59 5.28,2.4 9.92,5.72 13.93,9.99 4,4.27 7.13,9.19 9.4,14.76 2.27,5.57 3.4,11.49 3.4,17.76 0,6.15 -1.1,11.98 -3.31,17.5 -2.21,5.52 -5.31,10.41 -9.31,14.68 -4.02,4.27 -8.65,7.6 -13.94,9.98 -5.28,2.4 -11,3.59 -17.15,3.59z"/>
   <path class="fil1" d="M847.74 215.51c0,0 115.99,-32.21 176.6,-10.2 102.1,37.07 -25.39,556.02 -83.67,381.82 -41.51,-124.06 -95.15,-87.29 -95.15,-87.29 125.18,33.66 19.39,225.78 118.21,199.89 98.83,-25.87 217.4,-437.48 135.71,-522.89 -20.92,-21.88 -47.62,-30.01 -75.78,-30.01 -81.83,0 -175.92,68.68 -175.92,68.68z"/>
   <path class="fil1" d="M604.03 188.47c-62.27,120.39 9.87,305.47 69.17,431.67 59.28,126.19 100.33,49.36 126.49,-33.98 25.69,-81.87 71.15,-55.33 71.15,-55.33 -44.09,-34.92 -72.27,-2.67 -94.75,29.57 -15.64,22.45 -28.54,44.89 -42.12,44.69 -19.52,-0.29 -128.97,-273.26 -78.56,-364.52 50.39,-91.24 189.73,-26.2 189.73,-26.2 -45.73,-43.78 -106.86,-74.16 -158.05,-74.15 -35.07,0 -65.48,14.27 -83.06,48.25z"/>
   <path class="fil0" d="M724.9 244.62c0,0 -47.06,-14.75 -51.26,37 -3.84,47.26 12.56,91.97 12.56,91.97 0,0 -20.41,-118.18 38.7,-128.97z"/>
   <path class="fil0" d="M430.48 947.15l7.03 0c2.24,0 3.96,-0.53 5.16,-1.58 1.17,-1.05 1.75,-2.52 1.75,-4.4 0,-1.87 -0.57,-3.35 -1.74,-4.45 -1.19,-1.12 -2.86,-1.68 -5.02,-1.71l-7.18 0 0 12.14zm0 1.93l0 10.98 -2.33 0 0 -26.98 9.36 0c2.85,0 5.12,0.73 6.76,2.15 1.66,1.44 2.48,3.41 2.48,5.91 0,2.54 -0.79,4.5 -2.38,5.86 -1.6,1.39 -3.9,2.08 -6.92,2.08l-6.97 0z"/>
   <path class="fil0" d="M461.95 946.89l7.11 0c1.95,0 3.51,-0.55 4.68,-1.63 1.2,-1.1 1.79,-2.5 1.79,-4.23 0,-1.91 -0.62,-3.39 -1.85,-4.45 -1.23,-1.04 -2.96,-1.57 -5.19,-1.57l-6.54 0 0 11.88zm7.97 1.92l-7.97 0 0 11.25 -2.35 0 0 -26.97 8.93 0c2.93,0 5.21,0.7 6.87,2.09 1.65,1.39 2.47,3.34 2.47,5.85 0,1.73 -0.53,3.24 -1.55,4.57 -1.03,1.32 -2.42,2.23 -4.15,2.74l6.86 11.48 0 0.24 -2.47 0 -6.64 -11.25z"/>
   <path class="fil0" d="M509.88 945.11c0,-3.24 -0.74,-5.79 -2.24,-7.64 -1.49,-1.82 -3.54,-2.75 -6.14,-2.75 -2.56,0 -4.6,0.93 -6.11,2.77 -1.53,1.84 -2.27,4.43 -2.27,7.73l0 2.81c0,3.21 0.74,5.74 2.26,7.61 1.5,1.88 3.56,2.81 6.15,2.81 2.62,0 4.68,-0.92 6.14,-2.77 1.48,-1.85 2.21,-4.42 2.21,-7.72l0 -2.85zm2.32 2.92c0,2.49 -0.43,4.67 -1.3,6.55 -0.88,1.88 -2.13,3.32 -3.75,4.33 -1.63,1.02 -3.49,1.53 -5.62,1.53 -3.21,0 -5.8,-1.14 -7.77,-3.38 -1.98,-2.27 -2.96,-5.31 -2.96,-9.14l0 -2.77c0,-2.46 0.44,-4.63 1.32,-6.53 0.89,-1.89 2.14,-3.36 3.77,-4.37 1.62,-1.03 3.49,-1.54 5.61,-1.54 2.11,0 3.96,0.5 5.58,1.51 1.62,1 2.86,2.41 3.75,4.25 0.88,1.81 1.33,3.94 1.37,6.35l0 3.21z"/>
   <path class="fil0" d="M528.09 935.01l0 23.13 5.21 0c2.88,0 5.21,-0.95 6.96,-2.83 1.75,-1.89 2.61,-4.44 2.61,-7.65l0 -2.38c0,-3.1 -0.85,-5.58 -2.57,-7.45 -1.73,-1.86 -4,-2.8 -6.82,-2.82l-5.39 0zm-2.32 25.05l0 -26.97 7.68 0c2.24,0 4.27,0.5 6.05,1.51 1.78,1 3.17,2.44 4.18,4.33 0.99,1.87 1.5,4 1.5,6.39l0 2.5c0,2.41 -0.51,4.55 -1.5,6.41 -0.98,1.87 -2.39,3.3 -4.19,4.31 -1.8,1.02 -3.88,1.52 -6.22,1.52l-7.5 0z"/>
   <path class="fil0" d="M577.7 933.09l0 18.42c-0.01,1.81 -0.42,3.39 -1.22,4.73 -0.81,1.36 -1.95,2.38 -3.41,3.12 -1.47,0.71 -3.15,1.08 -5.04,1.08 -2.9,0 -5.21,-0.78 -6.95,-2.33 -1.75,-1.55 -2.64,-3.71 -2.72,-6.44l0 -18.58 2.31 0 0 18.25c0,2.27 0.66,4.03 1.98,5.29 1.32,1.25 3.11,1.88 5.38,1.88 2.26,0 4.05,-0.64 5.36,-1.89 1.32,-1.27 1.97,-3.02 1.97,-5.26l0 -18.27 2.34 0z"/>
   <polygon class="fil0" points="610.53,935.01 601.11,935.01 601.11,960.06 598.79,960.06 598.79,935.01 589.4,935.01 589.4,933.09 610.53,933.09 "/>
   <path class="fil0" d="M640.14 945.11c0,-3.24 -0.76,-5.79 -2.26,-7.64 -1.49,-1.82 -3.53,-2.75 -6.14,-2.75 -2.55,0 -4.59,0.93 -6.1,2.77 -1.52,1.84 -2.28,4.43 -2.28,7.73l0 2.81c0,3.21 0.76,5.74 2.27,7.61 1.51,1.88 3.56,2.81 6.15,2.81 2.62,0 4.67,-0.92 6.14,-2.77 1.48,-1.85 2.22,-4.42 2.22,-7.72l0 -2.85zm2.32 2.92c0,2.49 -0.44,4.67 -1.31,6.55 -0.88,1.88 -2.12,3.32 -3.76,4.33 -1.61,1.02 -3.49,1.53 -5.61,1.53 -3.2,0 -5.8,-1.14 -7.77,-3.38 -1.98,-2.27 -2.96,-5.31 -2.96,-9.14l0 -2.77c0,-2.46 0.45,-4.63 1.32,-6.53 0.89,-1.89 2.14,-3.36 3.77,-4.37 1.62,-1.03 3.5,-1.54 5.6,-1.54 2.11,0 3.97,0.5 5.6,1.51 1.61,1 2.86,2.41 3.73,4.25 0.89,1.81 1.35,3.94 1.39,6.35l0 3.21z"/>
   <path class="fil0" d="M671.57 953.43c0,-1.49 -0.54,-2.69 -1.61,-3.56 -1.07,-0.85 -3.02,-1.69 -5.87,-2.47 -2.84,-0.79 -4.91,-1.65 -6.21,-2.57 -1.88,-1.3 -2.8,-3.02 -2.8,-5.14 0,-2.06 0.86,-3.74 2.59,-5.03 1.73,-1.3 3.94,-1.94 6.63,-1.94 1.83,0 3.46,0.34 4.9,1.04 1.44,0.68 2.56,1.66 3.35,2.89 0.78,1.23 1.19,2.61 1.19,4.12l-2.35 0c0,-1.85 -0.64,-3.32 -1.92,-4.44 -1.28,-1.13 -3.01,-1.68 -5.17,-1.68 -2.09,0 -3.77,0.46 -5,1.37 -1.25,0.92 -1.88,2.12 -1.88,3.62 0,1.37 0.56,2.49 1.68,3.35 1.11,0.87 2.91,1.63 5.38,2.29 2.46,0.68 4.32,1.35 5.59,2.06 1.28,0.71 2.23,1.57 2.87,2.54 0.64,1 0.97,2.17 0.97,3.51 0,2.12 -0.86,3.83 -2.59,5.11 -1.74,1.29 -4.01,1.93 -6.84,1.93 -1.95,0 -3.72,-0.34 -5.34,-1.02 -1.6,-0.68 -2.83,-1.62 -3.67,-2.85 -0.83,-1.23 -1.26,-2.62 -1.26,-4.2l2.32 0c0,1.9 0.72,3.4 2.17,4.5 1.45,1.1 3.37,1.64 5.78,1.64 2.14,0 3.86,-0.46 5.15,-1.39 1.29,-0.92 1.94,-2.15 1.94,-3.68z"/>
   <path class="fil0" d="M721.72 945.11c0,-3.24 -0.75,-5.79 -2.25,-7.64 -1.5,-1.82 -3.54,-2.75 -6.15,-2.75 -2.54,0 -4.59,0.93 -6.09,2.77 -1.53,1.84 -2.29,4.43 -2.29,7.73l0 2.81c0,3.21 0.76,5.74 2.28,7.61 1.5,1.88 3.56,2.81 6.15,2.81 2.61,0 4.67,-0.92 6.14,-2.77 1.47,-1.85 2.21,-4.42 2.21,-7.72l0 -2.85zm2.32 2.92c0,2.49 -0.44,4.67 -1.31,6.55 -0.88,1.88 -2.12,3.32 -3.76,4.33 -1.61,1.02 -3.49,1.53 -5.6,1.53 -3.21,0 -5.8,-1.14 -7.78,-3.38 -1.97,-2.27 -2.96,-5.31 -2.96,-9.14l0 -2.77c0,-2.46 0.45,-4.63 1.33,-6.53 0.88,-1.89 2.13,-3.36 3.76,-4.37 1.62,-1.03 3.5,-1.54 5.6,-1.54 2.12,0 3.98,0.5 5.6,1.51 1.61,1 2.86,2.41 3.73,4.25 0.89,1.81 1.35,3.94 1.39,6.35l0 3.21z"/>
   <path class="fil0" d="M739.93 935.01l0 23.13 5.2 0c2.89,0 5.22,-0.95 6.97,-2.83 1.75,-1.89 2.61,-4.44 2.61,-7.65l0 -2.38c0,-3.1 -0.85,-5.58 -2.57,-7.45 -1.73,-1.86 -4,-2.8 -6.82,-2.82l-5.39 0zm-2.32 25.05l0 -26.97 7.68 0c2.24,0 4.27,0.5 6.04,1.51 1.79,1 3.18,2.44 4.19,4.33 0.99,1.87 1.49,4 1.49,6.39l0 2.5c0,2.41 -0.5,4.55 -1.49,6.41 -0.98,1.87 -2.4,3.3 -4.19,4.31 -1.81,1.02 -3.88,1.52 -6.22,1.52l-7.5 0z"/>
   <path class="fil0" d="M788.59 945.11c0,-3.24 -0.74,-5.79 -2.24,-7.64 -1.49,-1.82 -3.54,-2.75 -6.14,-2.75 -2.56,0 -4.6,0.93 -6.11,2.77 -1.52,1.84 -2.27,4.43 -2.27,7.73l0 2.81c0,3.21 0.75,5.74 2.26,7.61 1.5,1.88 3.56,2.81 6.15,2.81 2.62,0 4.68,-0.92 6.14,-2.77 1.48,-1.85 2.21,-4.42 2.21,-7.72l0 -2.85zm2.33 2.92c0,2.49 -0.43,4.67 -1.31,6.55 -0.87,1.88 -2.13,3.32 -3.75,4.33 -1.63,1.02 -3.49,1.53 -5.62,1.53 -3.21,0 -5.8,-1.14 -7.76,-3.38 -1.99,-2.27 -2.97,-5.31 -2.97,-9.14l0 -2.77c0,-2.46 0.45,-4.63 1.32,-6.53 0.9,-1.89 2.14,-3.36 3.78,-4.37 1.61,-1.03 3.48,-1.54 5.6,-1.54 2.11,0 3.96,0.5 5.59,1.51 1.61,1 2.86,2.41 3.74,4.25 0.88,1.81 1.34,3.94 1.38,6.35l0 3.21z"/>
   <polygon class="fil0" points="824.94,960.06 822.61,960.06 806.82,936.97 806.82,960.06 804.49,960.06 804.49,933.08 806.82,933.08 822.63,956.19 822.63,933.08 824.94,933.08 "/>
   <polygon class="fil0" points="858.26,935.01 848.85,935.01 848.85,960.06 846.53,960.06 846.53,935.01 837.14,935.01 837.14,933.09 858.26,933.09 "/>
   <path class="fil0" d="M887.87 945.11c0,-3.24 -0.75,-5.79 -2.25,-7.64 -1.49,-1.82 -3.54,-2.75 -6.14,-2.75 -2.55,0 -4.59,0.93 -6.1,2.77 -1.52,1.84 -2.27,4.43 -2.27,7.73l0 2.81c0,3.21 0.75,5.74 2.26,7.61 1.5,1.88 3.56,2.81 6.15,2.81 2.63,0 4.68,-0.92 6.14,-2.77 1.48,-1.85 2.21,-4.42 2.21,-7.72l0 -2.85zm2.33 2.92c0,2.49 -0.44,4.67 -1.32,6.55 -0.87,1.88 -2.12,3.32 -3.74,4.33 -1.63,1.02 -3.49,1.53 -5.62,1.53 -3.21,0 -5.8,-1.14 -7.77,-3.38 -1.98,-2.27 -2.95,-5.31 -2.95,-9.14l0 -2.77c0,-2.46 0.44,-4.63 1.31,-6.53 0.89,-1.89 2.14,-3.36 3.78,-4.37 1.61,-1.03 3.48,-1.54 5.59,-1.54 2.12,0 3.97,0.5 5.6,1.51 1.61,1 2.86,2.41 3.74,4.25 0.87,1.81 1.34,3.94 1.38,6.35l0 3.21z"/>
   <polygon class="fil0" points="936.04,947.13 923.19,947.13 923.19,958.14 937.96,958.14 937.96,960.06 920.87,960.06 920.87,933.08 937.87,933.08 937.87,935.01 923.19,935.01 923.19,945.21 936.04,945.21 "/>
   <polygon class="fil0" points="988.04,960.06 985.7,960.06 985.7,947.13 970.01,947.13 970.01,960.06 967.68,960.06 967.68,933.08 970.01,933.08 970.01,945.2 985.7,945.2 985.7,933.08 988.04,933.08 "/>
   <path class="fil0" d="M1020.72 945.11c0,-3.24 -0.75,-5.79 -2.25,-7.64 -1.49,-1.82 -3.54,-2.75 -6.14,-2.75 -2.55,0 -4.59,0.93 -6.1,2.77 -1.52,1.84 -2.27,4.43 -2.27,7.73l0 2.81c0,3.21 0.75,5.74 2.26,7.61 1.5,1.88 3.56,2.81 6.15,2.81 2.62,0 4.68,-0.92 6.14,-2.77 1.48,-1.85 2.21,-4.42 2.21,-7.72l0 -2.85zm2.33 2.92c0,2.49 -0.45,4.67 -1.32,6.55 -0.87,1.88 -2.12,3.32 -3.74,4.33 -1.63,1.02 -3.49,1.53 -5.62,1.53 -3.21,0 -5.8,-1.14 -7.78,-3.38 -1.97,-2.27 -2.95,-5.31 -2.95,-9.14l0 -2.77c0,-2.46 0.44,-4.63 1.32,-6.53 0.89,-1.89 2.14,-3.36 3.77,-4.37 1.62,-1.03 3.49,-1.54 5.6,-1.54 2.12,0 3.97,0.5 5.59,1.51 1.62,1 2.86,2.41 3.75,4.25 0.87,1.81 1.34,3.94 1.38,6.35l0 3.21z"/>
   <path class="fil0" d="M1052.15 953.43c0,-1.49 -0.54,-2.69 -1.6,-3.56 -1.07,-0.85 -3.03,-1.69 -5.88,-2.47 -2.83,-0.79 -4.9,-1.65 -6.22,-2.57 -1.86,-1.3 -2.79,-3.02 -2.79,-5.14 0,-2.06 0.87,-3.74 2.6,-5.03 1.72,-1.3 3.93,-1.94 6.63,-1.94 1.82,0 3.46,0.34 4.9,1.04 1.42,0.68 2.55,1.66 3.34,2.89 0.79,1.23 1.19,2.61 1.19,4.12l-2.34 0c0,-1.85 -0.64,-3.32 -1.93,-4.44 -1.27,-1.13 -3,-1.68 -5.16,-1.68 -2.1,0 -3.77,0.46 -5.02,1.37 -1.24,0.92 -1.87,2.12 -1.87,3.62 0,1.37 0.56,2.49 1.69,3.35 1.11,0.87 2.89,1.63 5.38,2.29 2.45,0.68 4.31,1.35 5.58,2.06 1.29,0.71 2.23,1.57 2.88,2.54 0.64,1 0.96,2.17 0.96,3.51 0,2.12 -0.87,3.83 -2.6,5.11 -1.72,1.29 -4.01,1.93 -6.82,1.93 -1.95,0 -3.73,-0.34 -5.34,-1.02 -1.62,-0.68 -2.84,-1.62 -3.68,-2.85 -0.83,-1.23 -1.25,-2.62 -1.25,-4.2l2.32 0c0,1.9 0.72,3.4 2.16,4.5 1.45,1.1 3.38,1.64 5.79,1.64 2.12,0 3.84,-0.46 5.14,-1.39 1.29,-0.92 1.94,-2.15 1.94,-3.68z"/>
   <path class="fil0" d="M1069.53 947.15l7.04 0c2.25,0 3.96,-0.53 5.15,-1.58 1.18,-1.05 1.77,-2.52 1.77,-4.4 0,-1.87 -0.59,-3.35 -1.76,-4.45 -1.18,-1.12 -2.85,-1.68 -5.01,-1.71l-7.19 0 0 12.14zm0 1.93l0 10.98 -2.33 0 0 -26.98 9.37 0c2.85,0 5.11,0.73 6.76,2.15 1.66,1.44 2.48,3.41 2.48,5.91 0,2.54 -0.79,4.5 -2.39,5.86 -1.59,1.39 -3.88,2.08 -6.91,2.08l-6.98 0z"/>
   <polygon class="fil0" points="1101.54,960.07 1099.21,960.07 1099.21,933.09 1101.54,933.09 "/>
   <polygon class="fil0" points="1135.36,935.01 1125.95,935.01 1125.95,960.06 1123.62,960.06 1123.62,935.01 1114.24,935.01 1114.24,933.09 1135.36,933.09 "/>
   <path class="fil0" d="M1149.1 950.56l11.01 0 -5.51 -14.69 -5.5 14.69zm11.75 1.92l-12.47 0 -2.83 7.58 -2.44 0 10.4 -26.97 2.21 0 10.38 26.97 -2.4 0 -2.85 -7.58z"/>
   <polygon class="fil0" points="1180.2,958.14 1193.76,958.14 1193.76,960.06 1177.85,960.06 1177.85,933.09 1180.2,933.09 "/>
   <path class="fil0" d="M1209.38 950.56l11 0 -5.5 -14.69 -5.5 14.69zm11.74 1.92l-12.46 0 -2.83 7.58 -2.44 0 10.4 -26.97 2.21 0 10.38 26.97 -2.41 0 -2.85 -7.58z"/>
   <path class="fil0" d="M1240.44 946.89l7.1 0c1.96,0 3.51,-0.55 4.69,-1.63 1.2,-1.1 1.78,-2.5 1.78,-4.23 0,-1.91 -0.61,-3.39 -1.84,-4.45 -1.23,-1.04 -2.96,-1.57 -5.19,-1.57l-6.54 0 0 11.88zm7.97 1.92l-7.97 0 0 11.25 -2.35 0 0 -26.97 8.93 0c2.93,0 5.2,0.7 6.86,2.09 1.65,1.39 2.47,3.34 2.47,5.85 0,1.73 -0.52,3.24 -1.56,4.57 -1.01,1.32 -2.4,2.23 -4.14,2.74l6.87 11.48 0 0.24 -2.47 0 -6.64 -11.25z"/>
  </g>
 </g>
</svg>
