<?xml version="1.0" encoding="UTF-8"?>
<!DOCTYPE svg PUBLIC "-//W3C//DTD SVG 1.1//EN" "http://www.w3.org/Graphics/SVG/1.1/DTD/svg11.dtd">
<!-- Creator: CorelDRAW -->
<svg xmlns="http://www.w3.org/2000/svg" xml:space="preserve" width="50.8mm" height="38.1mm" version="1.1" style="shape-rendering:geometricPrecision; text-rendering:geometricPrecision; image-rendering:optimizeQuality; fill-rule:evenodd; clip-rule:evenodd"
viewBox="0 0 5080 3810"
 xmlns:xlink="http://www.w3.org/1999/xlink"
 xmlns:xodm="http://www.corel.com/coreldraw/odm/2003">
 <defs>
  <style type="text/css">
   <![CDATA[
    .fil1 {fill:#FFCC00}
    .fil0 {fill:#666666;fill-opacity:0.890196}
   ]]>
  </style>
 </defs>
 <g id="Camada_x0020_1">
  <metadata id="CorelCorpID_0Corel-Layer"/>
  <g id="_2231961294320">
   <g>
    <path class="fil0" d="M574.01 274.17c0,77.16 60.2,100.14 138.65,100.14l261.89 0 332.7 1415.83c18.68,75.2 36.95,155.38 57.11,235.59l56.96 235.75c-179.06,4 -386.84,239.58 -277.37,485.34 59.11,132.69 183.23,207.92 331.28,207.92l-21.57 16.94c-9.73,6.45 -15.04,8.52 -24.23,14.28 -171.53,107.52 -224.09,361.13 -125.32,517.34 63.75,100.85 174.32,198.61 309.77,198.61 131.42,0 208.88,-12.33 310.11,-113.54 31.65,-31.64 54.56,-61.69 75.28,-101.89 64.94,-125.9 46.58,-282.41 -32.42,-399.43 -21.42,-31.73 -70.59,-82.24 -104.81,-103.17l-34.51 -19.41c-13.95,-8.89 -5.42,-2.82 -13.37,-9.73l1686.91 0 -42.85 26.48c-95.12,61.22 -180.53,183.69 -180.53,304.74 0,124.43 23.13,212.33 109.68,298.57 125.64,125.18 297.2,151.65 453.69,79.94 30.08,-13.79 92.34,-56.63 112.36,-80.22 120.25,-141.62 151.92,-334.03 40.71,-490.93 -63.73,-89.92 -72.71,-79.08 -137.16,-124.74l-16.98 -13.84c66.59,0 200.27,20.12 200.27,-92.43 0,-123.86 -177.22,-92.43 -277.29,-92.43l-2256.96 0.02c-72.69,0.28 -108.06,-0.59 -148.51,-36.36 -102.19,-90.36 -70.69,-257.59 78.18,-288.23 82.48,-16.98 1912.25,-6.67 2042.28,-6.67 168.67,0 329.77,27.38 436.01,-149.38 46.68,-77.67 151.7,-568.65 183.3,-694.82l143.18 -588.6c12.47,-51.3 87.03,-223.29 -76.94,-223.29l-554.6 0c0,38.95 23.11,113.32 23.11,269.6 0,237.05 -110.65,445.67 -267.67,602.73 -221.3,221.37 -543.98,311.35 -853.56,233.49 -165.06,-41.51 -305.64,-126.39 -425.17,-244.96 -219.77,-217.99 -299.37,-542.72 -225.24,-860.86l-600.83 0c-13.57,-28.3 -31.91,-119.43 -40.42,-159.84l-77 -323.56c-10.46,-51.08 -25.6,-109.71 -90.55,-109.71l-392.84 0c-44.52,0 -84.73,44.35 -84.73,84.73z"/>
    <path class="fil0" d="M2014.43 967.42c0,187.81 22.24,320.47 136.37,472.15 206.12,273.95 540.97,369.61 871.73,235.53 333.61,-135.24 532.6,-546.76 371.92,-947.68 -78.28,-195.31 -269.02,-358.15 -475.58,-410.24 -117.05,-29.51 -200.6,-32.53 -319.21,-12.39 -217.49,36.93 -406.96,184.32 -508.33,377.5 -34.96,66.6 -76.9,184.01 -76.9,285.13zm515.85 153.81c-72.11,0 -108.4,-35.83 -108.4,-107.72l0 -107.48 203.18 0 0 -203.18 215.42 0 0 203.18 94.78 0c72.35,0 108.4,35.82 108.4,107.48 0,71.89 -36.05,107.72 -108.4,107.72l-94.78 0 0 94.76c0,72.35 -35.83,108.41 -107.71,108.41 -71.65,0 -107.71,-36.06 -107.71,-108.41l0 -94.76 -94.78 0z"/>
   </g>
   <path class="fil1" d="M3501.08 2954.73l-1686.92 0c7.95,6.93 -0.59,0.85 13.36,9.74l34.52 19.42c15.73,9.61 34.6,25.46 52.49,42.87l1486.33 0c18.25,-17.45 37.59,-32.81 57.36,-45.54l42.86 -26.49z"/>
   <path class="fil1" d="M1453.66 2971.68l21.57 -16.95c-148.05,0 -272.18,-75.22 -331.27,-207.9 -89.01,-199.81 31.67,-392.88 176.14,-460.25 -184.06,27.67 -378.66,267.64 -267.39,517.41 59.32,133.17 179.75,212.32 325.13,221.81 15.77,-14.79 32.98,-28.18 51.59,-39.84 9.19,-5.76 14.5,-7.83 24.23,-14.28z"/>
   <path class="fil1" d="M1347.8 2275.31c24.46,-8.49 49.25,-13.29 73.52,-13.83l-56.96 -235.75c-20.16,-80.2 -38.43,-160.39 -57.11,-235.58l-332.69 -1415.84 -76.95 0 330.06 1404.66c20.02,80.56 39.59,166.48 61.19,252.42l58.94 243.92z"/>
   <path class="fil1" d="M3477.96 2438.65c-130.03,0 -1959.8,-10.32 -2042.28,6.66 -33.02,6.79 -60.26,20.31 -81.55,38.21 3.65,-0.94 7.36,-1.81 11.15,-2.58 88.38,-18.19 2048.86,-7.14 2188.19,-7.14 180.71,0 353.33,29.33 467.16,-160.07 50.01,-83.21 162.54,-609.26 196.39,-744.45l153.41 -630.65c13.36,-54.96 93.25,-239.24 -82.43,-239.24l-594.23 0c0,18.65 4.94,44.89 10.42,83.16l459.32 0c163.98,0 89.41,171.99 76.94,223.29l-143.18 588.59c-31.6,126.18 -136.62,617.15 -183.29,694.82 -106.25,176.77 -267.35,149.4 -436.02,149.4z"/>
   <path class="fil1" d="M2935.26 906.03c72.35,0 108.4,35.83 108.4,107.48 0,12.36 -1.06,23.66 -3.2,33.89 -10.27,49.26 -45.3,73.83 -105.2,73.83l-64.81 0 -29.96 0 0 94.76c0,14.95 -1.53,28.35 -4.59,40.2 -11.75,45.51 -46.1,68.21 -103.12,68.21 -71.66,0 -107.72,-36.06 -107.72,-108.41l0 -94.76 -94.77 0c-72.13,0 -108.41,-35.83 -108.41,-107.72l0 -66.66 0 -40.82 203.18 0 0 -74.34 0 -128.83 14.57 0 200.86 0 0 203.17 94.77 0zm-784.46 533.53c206.12,273.96 540.97,369.62 871.73,235.55 14.6,-5.92 28.94,-12.37 42.96,-19.4 0.37,-0.16 0.75,-0.3 1.12,-0.46 306.66,-152.31 481.3,-544.91 327.83,-927.82 -78.27,-195.32 -269.01,-358.16 -475.57,-410.25 -117.05,-29.51 -200.6,-32.53 -319.21,-12.39 -217.5,36.93 -406.96,184.32 -508.33,377.5 -34.95,66.61 -76.9,184.01 -76.9,285.13 0,142.33 12.78,252.97 68.62,364.23 17.86,35.56 40.11,71.18 67.75,107.91z"/>
   <path class="fil1" d="M658.74 189.44l392.85 0c0.35,0 0.72,0 1.07,0l-1.9 -7.99c-11.21,-54.72 -27.43,-117.55 -97.01,-117.55l-420.92 0c-47.7,0 -90.78,47.52 -90.78,90.78 0,77.56 56.76,104.03 133.18,107.01 7.06,-36.52 43.55,-72.25 83.51,-72.25z"/>
   <path class="fil1" d="M1820.32 699.39l-584.68 0c7.82,34.12 16.57,67.85 23.91,83.16l544.66 0c4.29,-27.72 9.66,-55.47 16.11,-83.16z"/>
   <path class="fil1" d="M1452.08 3276c0,-108.03 87.59,-195.62 195.62,-195.62 108.04,0 195.62,87.59 195.62,195.62 0,108.03 -87.58,195.62 -195.62,195.62 -108.03,0 -195.62,-87.59 -195.62,-195.62zm195.62 -272.5c-150.49,0 -272.5,122.01 -272.5,272.5 0,150.49 122.01,272.5 272.5,272.5 150.49,0 272.5,-122.01 272.5,-272.5 0,-150.49 -122.01,-272.5 -272.5,-272.5z"/>
   <path class="fil1" d="M3452.23 3276c0,-108.03 87.59,-195.62 195.62,-195.62 108.03,0 195.62,87.59 195.62,195.62 0,108.03 -87.59,195.62 -195.62,195.62 -108.03,0 -195.62,-87.59 -195.62,-195.62zm195.62 -272.5c-150.49,0 -272.5,122.01 -272.5,272.5 0,150.49 122.01,272.5 272.5,272.5 150.49,0 272.5,-122.01 272.5,-272.5 0,-150.49 -122.01,-272.5 -272.5,-272.5z"/>
  </g>
 </g>
</svg>
