<?xml version="1.0" encoding="UTF-8"?>
<!DOCTYPE svg PUBLIC "-//W3C//DTD SVG 1.1//EN" "http://www.w3.org/Graphics/SVG/1.1/DTD/svg11.dtd">
<!-- Creator: CorelDRAW -->
<svg xmlns="http://www.w3.org/2000/svg" xml:space="preserve" width="16.9332mm" height="11.0066mm" version="1.1" style="shape-rendering:geometricPrecision; text-rendering:geometricPrecision; image-rendering:optimizeQuality; fill-rule:evenodd; clip-rule:evenodd"
viewBox="0 0 1693.32 1100.66"
 xmlns:xlink="http://www.w3.org/1999/xlink"
 xmlns:xodm="http://www.corel.com/coreldraw/odm/2003">
 <defs>
  <style type="text/css">
   <![CDATA[
    .fil0 {fill:white;fill-rule:nonzero}
    .fil1 {fill:white;fill-rule:nonzero}
   ]]>
  </style>
     <mask id="id0">
  <linearGradient id="id1" gradientUnits="userSpaceOnUse" x1="783.91" y1="949.23" x2="788.93" y2="1079.83">
   <stop offset="0" style="stop-opacity:1; stop-color:white"/>
   <stop offset="1" style="stop-opacity:0; stop-color:white"/>
  </linearGradient>
      <rect style="fill:url(#id1)" x="615.98" y="949.74" width="92.25" height="98.52"/>
     </mask>
     <mask id="id2">
  <linearGradient id="id3" gradientUnits="userSpaceOnUse" x1="783.91" y1="949.23" x2="788.93" y2="1079.83">
   <stop offset="0" style="stop-opacity:1; stop-color:white"/>
   <stop offset="1" style="stop-opacity:0; stop-color:white"/>
  </linearGradient>
      <rect style="fill:url(#id3)" x="686.38" y="920.51" width="173.21" height="129.89"/>
     </mask>
 </defs>
 <g id="Camada_x0020_1">
  <metadata id="CorelCorpID_0Corel-Layer"/>
  <g id="_2963703321664">
   <path class="fil0" d="M718.99 802.97l233.7 0c25.56,0 46.86,-0.79 64.2,-2.78 17.04,-1.99 31.95,-4.97 44.13,-9.15 12.17,-3.97 23.12,-9.54 32.86,-16.9 9.74,-7.16 19.17,-16.5 28,-28.23 9.12,-11.54 17.34,-26.25 25.56,-43.95 7.91,-17.69 17.95,-44.14 29.82,-79.53l68.2 0 0 234.23 -797.61 0 0 -28.63c37.13,-6.17 61.78,-12.93 74.25,-20.68 12.48,-7.56 20.69,-18.3 24.35,-32.21 3.95,-13.92 5.78,-35.4 5.78,-64.03l0 -504.06c0,-26.64 -1.52,-46.33 -4.26,-58.46 -3.05,-12.33 -7.91,-21.67 -14.91,-28.63 -6.7,-6.76 -15.83,-12.13 -27.09,-16.3 -11.25,-3.98 -30.73,-8.55 -58.12,-13.53l0 -28.63 375.51 0 0 28.63c-26.17,4.58 -44.73,8.75 -55.69,12.53 -10.95,3.58 -20.08,8.55 -27.39,14.71 -6.99,6.17 -12.47,15.71 -15.82,28.64 -3.65,12.72 -5.47,33.2 -5.47,61.04l0 595.92z"/>
   <path class="fil0" d="M767.16 422.04l16.61 0c32.08,0 53.27,-11.79 77.39,-33.13 14.34,-12.89 36.43,-36.7 65.87,-71.61 35.3,-41.46 59.46,-71.41 72.48,-90.06 17.58,-23.84 39.27,-56.73 39.27,-88.27 0,-15.48 -4.34,-26.78 -12.84,-34.12 -8.49,-7.14 -20.01,-11.51 -34.73,-12.89l0 -30.46 254.26 0 -0.01 30.46c-27.37,6.03 -63.12,22.24 -83.24,42.05 -11.89,11.9 -29.44,31.34 -52.66,58.32l-185.92 219.79 201.4 307.47c21.33,32.53 38.13,55.14 50.21,68.24 20.39,21.43 41.11,36.1 70.21,40.26l0 28.57 -243.87 0 0 -28.57c13.78,-0.99 23.6,-3.77 30.01,-8.13 24.6,-16.44 -6.48,-64.08 -17.17,-80.14l-128.92 -201.54c-15.1,-24.2 -26.24,-40.07 -33.22,-47.81 -16.23,-17.97 -32.16,-22.61 -55.31,-22.61l-29.26 0 0 0c0,0 9.5,-1.42 -48.67,0.13 0,-90.46 0.03,-283.72 0,-300.17 -0.15,-91.22 0,-18.16 0,-106.32l113.42 0 0 30.46c-16.24,4.16 -27.94,8.53 -35.11,12.69 -17.55,10.19 -23.39,24.78 -26.62,44.83 -2.07,12.7 -3.02,32.53 -3.02,59.11l-0.56 213.45z"/>
   <g>
    <path class="fil1" d="M890.87 1062.66c1.28,0 2.03,-1.22 1.77,-2.43 -2.13,-10.94 1.32,-38.4 2.5,-49.34l12.51 -12.88c10.89,21.88 30.53,63.92 51.97,63.92l0.26 0c11.94,-0.24 16.55,-3.64 17.4,-6.8 0.29,-0.98 0.34,-1.95 0.13,-2.92 -0.59,-2.67 -3.11,-4.86 -4.89,-4.86 -0.51,0 -1.23,0.24 -1.58,0.97 -0.55,0.97 -1.52,1.22 -2.54,1.22 -4.59,0 -12.02,-9.48 -14.5,-12.64 -11.5,-14.1 -24.23,-36.21 -31.1,-52.5 20.47,-18.47 42.19,-39.37 46.35,-48.36 1.41,-2.92 1.79,-5.83 1.21,-8.51 -1.48,-6.8 -7.46,-13.12 -13.97,-17.25 -0.62,-0.49 -1.13,-0.49 -1.9,-0.49 -1.02,0 -1.93,0.49 -1.92,1.7 -0.7,14.34 -35.38,55.41 -53.95,75.59 3.81,-28.2 8.23,-54.69 9.26,-60.52 0.39,-1.7 0.53,-3.4 0.21,-4.86 -1.91,-8.75 -17.49,-11.18 -27.45,-11.18l-4.54 0.24c-9.54,0.73 -18.3,8.51 -25.47,18.96 -8.37,11.91 -14.17,27.46 -14.84,38.4 -0.09,1.94 0.13,4.13 0.56,6.07 0.74,3.41 2.45,6.57 6.19,8.51 2.26,0.97 4.66,1.46 6.96,1.46 4.08,0 7.9,-1.22 11,-2.19 1.17,-0.48 1.47,-1.46 1.31,-2.19 -0.26,-1.21 -1.24,-2.18 -2.57,-2.43 -0.56,-0.24 -0.98,-0.97 -1.24,-2.18l-0.44 -3.16c0.29,-9.24 14.94,-52.01 26.17,-52.01l1.33 0.24c-2.51,11.91 -8.64,53.95 -11.88,88.22 -1.93,20.42 -2.85,38.4 -1.26,45.69l0.73 2.19c2.44,5.35 9.54,6.32 15.67,6.32l2.55 0zm106.12 -11.91c11.64,-0.49 20.26,-32.32 24.66,-49.58 0.15,-0.48 0.1,-0.73 -0.01,-1.21 -0.21,-0.98 -0.88,-1.7 -1.7,-1.95l-1.33 -0.24c-1.02,0 -1.73,0.24 -1.98,1.46 -3.8,15.31 -12.84,46.42 -21.21,46.66 -1.53,0 -2.36,-1.46 -2.94,-4.13 -3.24,-14.83 4.08,-63.19 4.95,-68.54l0.04 -0.97c-0.79,-3.64 -9.5,-7.29 -15.62,-7.29 -2.81,0 -5.15,0.97 -5.75,2.92 -1.86,8.99 -5.57,30.62 -5.67,48.85 0.1,6.32 0.41,12.39 1.52,17.49 0.95,4.38 2.57,8.27 4.63,10.7 3.92,5.1 10.72,5.83 17.1,5.83l3.31 0zm-2.05 -94.78c2.04,0 3.72,-0.49 3.97,-1.7 0.99,-3.65 2.65,-12.4 3.45,-14.59 0.41,-0.48 0.25,-1.21 0.14,-1.7 -0.79,-3.64 -9.3,-7.53 -15.17,-7.53 -2.81,0 -4.94,0.73 -5.23,2.92 -0.84,3.15 -1.84,12.63 -0.99,16.52 0.69,3.16 8.73,6.08 13.83,6.08zm90.1 94.78c2.81,0 5.45,-1.94 7.67,-4.62 8.09,-9.72 14.29,-31.59 17.75,-44.96 0.15,-0.48 0.1,-0.73 -0.01,-1.21 -0.21,-0.98 -0.57,-1.46 -1.7,-1.95l-1.33 -0.24c-1.02,0 -1.73,0.24 -1.98,1.46 -3.16,12.39 -9.97,34.99 -16.79,43.5 -0.4,0.49 -2.88,3.16 -4.92,3.16 -0.26,0 -0.67,-0.73 -0.94,-1.94l-0.91 -5.35c-2.66,-25.03 10.78,-92.11 11.84,-100.13l-0.16 -0.73c-0.74,-3.4 -10.42,-6.81 -17.31,-6.81 -3.32,0 -5.71,0.73 -6.31,2.68 -1.28,5.83 -4.22,20.41 -6.63,37.43 -3.97,-4.14 -9.7,-5.84 -15.82,-5.84l-0.26 0c-25.26,0 -36.16,34.27 -30.91,58.33 2.76,12.64 9.98,22.36 22.29,22.6l0.25 0c10.72,0 17.32,-10.69 21.42,-21.14 0.23,3.4 0.72,6.8 1.35,9.72 0.91,4.13 2.16,7.53 4.02,10.21 3.66,5.1 9.69,5.83 15.82,5.83l3.57 0zm-42.77 -18.23c-2.81,0 -4.41,-2.67 -5.26,-6.56 -3.13,-14.34 4.21,-47.39 16.2,-47.39l0.26 0c3.83,0 5.79,3.16 6.69,7.29 1.22,5.59 0.46,12.64 -0.03,15.07 -1.17,6.32 -10,31.35 -17.86,31.59zm87.69 18.23c7.65,0 16.48,-0.49 22.39,-8.51 3.33,-4.61 6.1,-9.47 8.7,-15.06 3.67,-7.78 6.81,-16.77 9.39,-26.01l0.04 -0.97c-0.21,-0.97 -0.88,-1.7 -1.75,-2.19 -0.57,-0.24 -1.08,-0.24 -1.33,-0.24 -1.02,0 -1.74,0.24 -2.03,1.21 -2.83,10.45 -5.93,18.48 -8.83,25.04 -2.81,5.83 -6.74,12.39 -9.32,15.79 1.56,-3.4 2.13,-7.77 2.19,-13.36 -0.02,-2.43 -0.29,-4.86 -0.82,-7.29 -2.29,-10.45 -8.09,-20.66 -10.31,-30.87 -1.38,-6.32 -1.28,-12.88 1.88,-19.44 0.4,-0.49 0.24,-1.22 0.14,-1.7 -0.27,-1.22 -1.5,-2.19 -3.03,-2.19l-18.89 0c-4.85,0 -11.65,29.65 -12.73,34.02 -0.15,0.49 0.01,1.22 0.11,1.71 0.27,1.21 1.09,1.45 1.65,1.7 0.56,0.24 0.82,0.24 1.33,0.24 0.76,0 1.68,-0.49 2.03,-1.22l5.05 -18.95c0.12,1.7 0.49,3.4 0.86,5.1 2.33,10.7 8.37,24.31 10.91,35.97 1.49,6.81 1.79,12.88 -0.83,17.26 -0.95,1.45 -2.48,2.67 -4.01,2.67 -0.51,0 -1.02,0 -1.63,-0.49 -1.18,-0.73 -1.96,-1.94 -2.38,-3.88 -1.12,-5.11 0.6,-13.61 3.99,-16.77 0.66,-0.49 0.76,-1.22 0.65,-1.71 -0.74,-3.4 -9.25,-8.5 -15.12,-8.5 -2.05,0 -3.93,0.73 -4.83,2.43 -2.72,5.1 -3.49,10.94 -2.27,16.53 2.28,10.45 11.44,19.68 26.5,19.68l2.3 0z"/>
    <path class="fil1" d="M654.14 1037.49c16.12,0 23.68,-17.8 25.77,-31.81l1.86 0c6.07,0 11.89,-2.07 15.99,-5.83 0.27,-3.42 0.59,-6.94 0.96,-10.52 -0.21,0.17 -0.38,0.42 -0.49,0.77 -2.37,7.34 -9.95,11.13 -17.66,11.13 0.52,-5.12 0.41,-12.02 -0.99,-18.47 -2.28,-10.45 -7.74,-20.46 -19.53,-23.13 -2.2,-0.45 -4.12,-0.67 -5.99,-0.67 -21.72,0 -31.29,30.03 -26.29,52.94 3.11,14.24 11.66,25.59 26.37,25.59zm-2.37 -10.3l-0.7 0c-3.6,-0.45 -5.87,-4.45 -7.09,-10.01 -3.49,-16.02 2.29,-46.27 13.11,-48.05l1.17 0c3.04,0 4.92,2.22 6.26,5.12 -4.2,1.11 -7,7.56 -5.59,14.01 0.83,3.78 3.1,7.79 7.42,10.46 -1.06,6.89 -5.47,28.47 -14.58,28.47z"/>
    <path class="fil1" d="M647.48 1061.66c6.96,0 13.2,-5.72 14.79,-13.57l0.22 -1.11c-0.29,-1.34 -1.7,-2.45 -2.87,-2.45l-0.65 0.22c-2.16,0.74 -4.66,1.12 -7.23,1.12 -15.42,0 -36.21,-11.79 -52.76,-19.13 8.63,-30.03 9.25,-69.86 15.98,-102.33 0.32,-1.56 0.53,-2.89 0.24,-4.22 -1.79,-8.23 -16.31,-10.94 -25.4,-10.46l-4.16 0.22c-8.51,0.46 -16.69,7.83 -23.31,17.35 -7.6,10.94 -12.99,25.14 -13.59,35.15 -0.1,1.78 0.13,3.78 0.52,5.56 0.68,3.12 2.19,6.1 5.67,7.79 2.01,0.98 4.26,1.33 6.36,1.33 3.74,0 7.26,-1.04 10.08,-2 1.09,-0.38 1.34,-1.33 1.19,-2 -0.24,-1.11 -1.13,-2 -2.35,-2.23 -0.52,-0.22 -0.98,-0.87 -1.14,-2l-0.4 -2.89c-1.15,-8.39 13.86,-49.45 23.95,-47.6l1.22 0.22c-6.78,33.14 -6.72,69.85 -13.37,101.43 -3,-0.89 -5.9,-1.33 -8.47,-1.33 -3.27,0 -6.44,0.75 -9.46,2.67 -5.39,3.42 -7.72,9.56 -6.46,15.35 1.41,6.45 7.66,13.29 18.84,12.45l2.98 -0.22c6.44,-0.48 11.37,-3.56 15.3,-9.12 16.79,8.45 36.06,21.8 52.41,21.8l1.87 0zm-78.08 -23.8l-0.23 0c-2.63,0 -3.51,-1.11 -3.8,-2.45 -0.25,-1.11 0.24,-2.18 1.05,-2.67 1.05,-0.62 2.37,-0.89 3.78,-0.89 1.86,0 4.06,0.45 5.8,0.89 -1.39,2.23 -3.33,5.12 -6.6,5.12z"/>
    <path class="fil1" d="M715.08 1039.62c1.4,0 2.09,-1.11 1.85,-2.22 -1.76,-9.12 0.16,-26.03 1.54,-34.7 0.64,-6.68 7.52,-28.7 14.43,-29.14l0.46 0c1.64,0 2.4,1.33 3.35,3.56l1.58 5.11c1.65,7.57 1.45,17.35 0.48,23.58 -5.93,0.67 -11.53,1.78 -14.91,5.56 -3.09,4.01 -3.76,8.46 -2.88,12.46 1.5,6.9 7.62,12.46 15.09,12.46 1.41,0 2.76,-0.23 4.11,-0.45 10.35,-2.89 16.28,-14.23 18.42,-26.91 9.57,-1.12 18,-4.23 20.86,-14.69 0.13,-0.44 0.04,-0.89 -0.01,-1.11 -0.2,-0.89 -0.86,-1.78 -1.61,-2 -0.51,-0.22 -0.98,-0.22 -1.21,-0.22 -0.7,0 -1.54,0.44 -1.77,1.55 -1.85,7.57 -8.46,10.46 -15.64,11.79 0.51,-6.22 0.17,-13.12 -1.19,-19.35l-0.44 -2c-2.98,-10.45 -9.24,-22.02 -21.15,-22.02l-0.7 0c-5.84,0 -9.97,3.56 -12.92,8.23 2.3,-15.13 4.67,-27.81 5.43,-31.81l0.04 -0.89c-0.77,-3.56 -9.39,-6.67 -15.23,-6.67 -2.81,0 -5,0.66 -5.31,2.44 -4.78,17.11 -13.72,81.62 -9.98,98.77l0.81 2.67c2.29,5.11 8.56,6 14.16,6l2.34 0zm13.48 -14.23c-1.41,0 -2.4,-1.34 -2.74,-2.9 -0.48,-2.22 0.05,-5.11 1.9,-7.34 1.81,-2.44 6.19,-3.78 10.25,-4.44 -1.27,4.89 -2.88,8.23 -4.68,10.67 -1.71,2.89 -3.33,4.01 -4.73,4.01zm73.03 7.11l-0.7 0c-3.6,-0.44 -5.88,-4.44 -7.09,-10.01 -3.5,-16.01 2.28,-46.26 13.11,-48.04l1.16 0c3.04,0 4.93,2.22 6.26,5.11 -4.2,1.12 -6.99,7.57 -5.59,14.02 0.83,3.78 3.1,7.78 7.42,10.45 -1.06,6.9 -5.46,28.47 -14.57,28.47zm-0.13 6.9c16.11,0 23.68,-17.79 25.76,-31.81l1.87 0c9.34,0 18.08,-4.89 20.91,-13.35 0.14,-0.44 0.04,-0.89 -0.06,-1.33 -0.14,-0.67 -0.52,-1.34 -1.27,-1.56 -0.52,-0.22 -1.03,-0.44 -1.5,-0.44 -0.7,0 -1.35,0.22 -1.63,1.11 -2.36,7.34 -9.95,11.12 -17.66,11.12 0.52,-5.11 0.42,-12.01 -0.99,-18.46 -2.28,-10.45 -7.73,-20.46 -19.53,-23.13 -2.2,-0.45 -4.12,-0.67 -5.98,-0.67 -21.73,0 -31.29,30.03 -26.29,52.94 3.1,14.24 11.65,25.58 26.37,25.58z"/>
    <path class="fil0" style="mask:url(#id0)" d="M653.66 1038.26c16.11,0 23.68,-17.8 25.76,-31.81l1.87 0c6.07,0 11.88,-2.07 15.99,-5.83 0.26,-3.41 0.59,-6.94 0.95,-10.52 -0.21,0.18 -0.38,0.42 -0.49,0.78 -2.36,7.34 -9.95,11.12 -17.66,11.12 0.52,-5.12 0.42,-12.01 -0.99,-18.46 -2.28,-10.46 -7.74,-20.47 -19.53,-23.14 -2.2,-0.44 -4.12,-0.66 -5.99,-0.66 -21.72,0 -31.28,30.03 -26.28,52.94 3.1,14.23 11.65,25.58 26.37,25.58zm-2.37 -10.3l-0.7 0c-3.6,-0.44 -5.88,-4.45 -7.09,-10.01 -3.5,-16.01 2.28,-46.27 13.1,-48.05l1.17 0c3.04,0 4.93,2.23 6.26,5.12 -4.2,1.11 -6.99,7.56 -5.59,14.01 0.83,3.79 3.1,7.79 7.42,10.46 -1.06,6.89 -5.46,28.47 -14.57,28.47z"/>
    <path class="fil0" style="mask:url(#id2)" d="M714.59 1040.4c1.4,0 2.09,-1.12 1.85,-2.23 -1.75,-9.12 0.16,-26.02 1.54,-34.7 0.65,-6.67 7.52,-28.69 14.43,-29.14l0.47 0c1.63,0 2.39,1.34 3.34,3.56l1.59 5.12c1.65,7.56 1.45,17.35 0.47,23.58 -5.93,0.66 -11.52,1.78 -14.9,5.56 -3.1,4 -3.76,8.45 -2.89,12.45 1.5,6.9 7.62,12.46 15.1,12.46 1.4,0 2.75,-0.22 4.1,-0.45 10.35,-2.89 16.29,-14.23 18.42,-26.91 9.57,-1.11 18,-4.23 20.86,-14.68 0.14,-0.45 0.04,-0.89 -0.01,-1.11 -0.19,-0.89 -0.85,-1.78 -1.6,-2.01 -0.52,-0.22 -0.99,-0.22 -1.22,-0.22 -0.7,0 -1.54,0.45 -1.76,1.56 -1.86,7.56 -8.47,10.45 -15.65,11.79 0.51,-6.23 0.17,-13.13 -1.19,-19.35l-0.43 -2.01c-2.98,-10.45 -9.25,-22.02 -21.16,-22.02l-0.7 0c-5.84,0 -9.97,3.56 -12.92,8.23 2.31,-15.12 4.68,-27.8 5.44,-31.81l0.04 -0.89c-0.78,-3.56 -9.4,-6.67 -15.24,-6.67 -2.8,0 -4.99,0.67 -5.31,2.45 -4.77,17.1 -13.72,81.62 -9.98,98.76l0.82 2.67c2.28,5.12 8.55,6.01 14.16,6.01l2.33 0zm13.48 -14.24c-1.4,0 -2.39,-1.33 -2.73,-2.89 -0.49,-2.23 0.05,-5.12 1.9,-7.34 1.8,-2.45 6.18,-3.78 10.24,-4.45 -1.27,4.89 -2.88,8.23 -4.68,10.68 -1.7,2.89 -3.33,4 -4.73,4zm73.03 7.12l-0.7 0c-3.6,-0.45 -5.88,-4.45 -7.09,-10.01 -3.49,-16.02 2.29,-46.27 13.11,-48.05l1.17 0c3.03,0 4.92,2.23 6.25,5.12 -4.19,1.11 -6.99,7.56 -5.58,14.01 0.82,3.78 3.1,7.79 7.42,10.46 -1.07,6.89 -5.47,28.47 -14.58,28.47zm-0.13 6.89c16.12,0 23.68,-17.79 25.76,-31.8l1.87 0c9.34,0 18.09,-4.9 20.92,-13.35 0.13,-0.45 0.03,-0.89 -0.06,-1.34 -0.15,-0.66 -0.53,-1.33 -1.28,-1.55 -0.51,-0.23 -1.03,-0.45 -1.5,-0.45 -0.7,0 -1.35,0.22 -1.62,1.11 -2.37,7.34 -9.96,11.13 -17.66,11.13 0.52,-5.12 0.41,-12.02 -1,-18.47 -2.28,-10.45 -7.73,-20.46 -19.53,-23.13 -2.2,-0.45 -4.11,-0.67 -5.98,-0.67 -21.73,0 -31.29,30.03 -26.29,52.94 3.11,14.24 11.66,25.58 26.37,25.58z"/>
    <path class="fil1" d="M654.14 1037.49c16.12,0 23.68,-17.8 25.77,-31.81l1.86 0c6.07,0 11.89,-2.07 15.99,-5.83 0.27,-3.42 0.59,-6.94 0.96,-10.52 -0.21,0.17 -0.38,0.42 -0.49,0.77 -2.37,7.34 -9.95,11.13 -17.66,11.13 0.52,-5.12 0.41,-12.02 -0.99,-18.47 -2.28,-10.45 -7.74,-20.46 -19.53,-23.13 -2.2,-0.45 -4.12,-0.67 -5.99,-0.67 -21.72,0 -31.29,30.03 -26.29,52.94 3.11,14.24 11.66,25.59 26.37,25.59zm-2.37 -10.3l-0.7 0c-3.6,-0.45 -5.87,-4.45 -7.09,-10.01 -3.49,-16.02 2.29,-46.27 13.11,-48.05l1.17 0c3.04,0 4.92,2.22 6.26,5.12 -4.2,1.11 -7,7.56 -5.59,14.01 0.83,3.78 3.1,7.79 7.42,10.46 -1.06,6.89 -5.47,28.47 -14.58,28.47z"/>
    <path class="fil1" d="M715.08 1039.62c1.4,0 2.09,-1.11 1.85,-2.22 -1.76,-9.12 0.16,-26.03 1.54,-34.7 0.64,-6.68 7.52,-28.7 14.43,-29.14l0.46 0c1.64,0 2.4,1.33 3.35,3.56l1.58 5.11c1.65,7.57 1.45,17.35 0.48,23.58 -5.93,0.67 -11.53,1.78 -14.91,5.56 -3.09,4.01 -3.76,8.46 -2.88,12.46 1.5,6.9 7.62,12.46 15.09,12.46 1.41,0 2.76,-0.23 4.11,-0.45 10.35,-2.89 16.28,-14.23 18.42,-26.91 9.57,-1.12 18,-4.23 20.86,-14.69 0.13,-0.44 0.04,-0.89 -0.01,-1.11 -0.2,-0.89 -0.86,-1.78 -1.61,-2 -0.51,-0.22 -0.98,-0.22 -1.21,-0.22 -0.7,0 -1.54,0.44 -1.77,1.55 -1.85,7.57 -8.46,10.46 -15.64,11.79 0.51,-6.22 0.17,-13.12 -1.19,-19.35l-0.44 -2c-2.98,-10.45 -9.24,-22.02 -21.15,-22.02l-0.7 0c-5.84,0 -9.97,3.56 -12.92,8.23 2.3,-15.13 4.67,-27.81 5.43,-31.81l0.04 -0.89c-0.77,-3.56 -9.39,-6.67 -15.23,-6.67 -2.81,0 -5,0.66 -5.31,2.44 -4.78,17.11 -13.72,81.62 -9.98,98.77l0.81 2.67c2.29,5.11 8.56,6 14.16,6l2.34 0zm13.48 -14.23c-1.41,0 -2.4,-1.34 -2.74,-2.9 -0.48,-2.22 0.05,-5.11 1.9,-7.34 1.81,-2.44 6.19,-3.78 10.25,-4.44 -1.27,4.89 -2.88,8.23 -4.68,10.67 -1.71,2.89 -3.33,4.01 -4.73,4.01zm73.03 7.11l-0.7 0c-3.6,-0.44 -5.88,-4.44 -7.09,-10.01 -3.5,-16.01 2.28,-46.26 13.11,-48.04l1.16 0c3.04,0 4.93,2.22 6.26,5.11 -4.2,1.12 -6.99,7.57 -5.59,14.02 0.83,3.78 3.1,7.78 7.42,10.45 -1.06,6.9 -5.46,28.47 -14.57,28.47zm-0.13 6.9c16.11,0 23.68,-17.79 25.76,-31.81l1.87 0c9.34,0 18.08,-4.89 20.91,-13.35 0.14,-0.44 0.04,-0.89 -0.06,-1.33 -0.14,-0.67 -0.52,-1.34 -1.27,-1.56 -0.52,-0.22 -1.03,-0.44 -1.5,-0.44 -0.7,0 -1.35,0.22 -1.63,1.11 -2.36,7.34 -9.95,11.12 -17.66,11.12 0.52,-5.11 0.42,-12.01 -0.99,-18.46 -2.28,-10.45 -7.73,-20.46 -19.53,-23.13 -2.2,-0.45 -4.12,-0.67 -5.98,-0.67 -21.73,0 -31.29,30.03 -26.29,52.94 3.1,14.24 11.65,25.58 26.37,25.58z"/>
   </g>
  </g>
 </g>
</svg>
