<?xml version="1.0" encoding="UTF-8"?>
<!DOCTYPE svg PUBLIC "-//W3C//DTD SVG 1.1//EN" "http://www.w3.org/Graphics/SVG/1.1/DTD/svg11.dtd">
<!-- Creator: CorelDRAW -->
<svg xmlns="http://www.w3.org/2000/svg" xml:space="preserve" width="50.8mm" height="38.1mm" version="1.1" style="shape-rendering:geometricPrecision; text-rendering:geometricPrecision; image-rendering:optimizeQuality; fill-rule:evenodd; clip-rule:evenodd"
viewBox="0 0 5080 3810"
 xmlns:xlink="http://www.w3.org/1999/xlink"
 xmlns:xodm="http://www.corel.com/coreldraw/odm/2003">
 <defs>
  <style type="text/css">
   <![CDATA[
    .str0 {stroke:#4D4D4D;stroke-width:8.47;stroke-miterlimit:22.9256}
    .str1 {stroke:#9900CC;stroke-width:8.47;stroke-miterlimit:22.9256}
    .fil0 {fill:white}
    .fil1 {fill:#606060;fill-rule:nonzero}
    .fil4 {fill:#FE3CCC;fill-rule:nonzero}
    .fil2 {fill:url(#id3)}
    .fil3 {fill:url(#id4)}
   ]]>
  </style>
     <clipPath id="id0">
      <path d="M53.12 20.66l4973.76 0 0 3768.68 -4973.76 0 0 -3768.68z"/>
     </clipPath>
      <clipPath id="id1">
       <path d="M348.84 1484.5l4398.82 0 0 2134.48 -4398.82 0 0 -2134.48z"/>
      </clipPath>
     <clipPath id="id2">
      <path d="M498.3 1544.91l4099.9 0c48.98,0 89.06,40.06 89.06,89.05l0 1835.57c0,48.98 -40.08,89.05 -89.06,89.05l-4099.9 0c-48.98,0 -89.06,-40.07 -89.06,-89.05l0 -1835.57c0,-48.99 40.08,-89.05 89.06,-89.05z"/>
     </clipPath>
  <linearGradient id="id3" gradientUnits="userSpaceOnUse" x1="2538.46" y1="565.66" x2="2857.94" y2="565.66">
   <stop offset="0" style="stop-opacity:1; stop-color:#66F2E1"/>
   <stop offset="0.647059" style="stop-opacity:1; stop-color:#34A1E6"/>
   <stop offset="0.941176" style="stop-opacity:1; stop-color:#0150EC"/>
   <stop offset="1" style="stop-opacity:1; stop-color:#0150EC"/>
  </linearGradient>
  <linearGradient id="id4" gradientUnits="userSpaceOnUse" x1="2224.42" y1="550.45" x2="2572.78" y2="550.45">
   <stop offset="0" style="stop-opacity:1; stop-color:#0150EC"/>
   <stop offset="0.270588" style="stop-opacity:1; stop-color:#7F46DC"/>
   <stop offset="1" style="stop-opacity:1; stop-color:#FE3CCC"/>
  </linearGradient>
 </defs>
 <g id="Layer_x0020_1">
  <metadata id="CorelCorpID_0Corel-Layer"/>
  <g id="_1962842089056">
   <g>
    <g style="clip-path:url(#id0)">
     <image x="53.12" y="20.66" width="4973.76" height="3768.68" xlink:href="siteaoh_Images\siteaoh_ImgID1.png"/>
    </g>
   </g>
   <rect class="fil0 str0" x="129.83" y="97.37" width="4820.35" height="3615.26" rx="159.89" ry="159.89"/>
   <g>
    <rect class="fil0 str1" x="229.3" y="1460.21" width="4637.88" height="2183.06" rx="153.84" ry="96.55"/>
    <g>
     <g style="clip-path:url(#id1)">
      <image x="348.84" y="1484.5" width="4398.82" height="2134.48" xlink:href="siteaoh_Images\siteaoh_ImgID2.png"/>
     </g>
    </g>
    <g style="clip-path:url(#id2)">
     <image x="347.65" y="1176.79" width="4412.44" height="2482" xlink:href="siteaoh_Images\siteaoh_ImgID3.png"/>
    </g>
   </g>
   <g>
    <path class="fil1" d="M1897.94 1167.45l-15.57 -59.01 -15.58 59.01 31.15 0zm-41.32 -104.11l51.48 0 53.35 167.63 -46.75 0 -8.66 -32.82 -47.36 0 -8.67 32.82 -46.98 0 53.59 -167.63z"/>
    <path class="fil1" d="M1969.95 1058.62l44.85 0 0 123c0,4.57 0.98,8.07 2.96,10.51 1.96,2.44 4.83,3.66 8.62,3.66 1.88,0 3.92,-0.31 6.13,-0.94 2.21,-0.63 4.25,-1.5 6.15,-2.61l5.66 33.06c-5.36,2.52 -11.37,4.48 -18.07,5.9 -6.67,1.42 -13.01,2.12 -18.99,2.12 -11.98,0 -21.19,-3.1 -27.63,-9.32 -6.46,-6.22 -9.68,-15.08 -9.68,-26.55l0 -138.83z"/>
    <path class="fil1" d="M2122.71 1195.56c3.29,0 6.33,-0.69 9.08,-2.04 2.76,-1.36 5.16,-3.25 7.21,-5.68 2.04,-2.41 3.61,-5.22 4.72,-8.38 1.1,-3.18 1.65,-6.57 1.65,-10.2 0,-3.78 -0.59,-7.18 -1.77,-10.21 -1.18,-3.01 -2.87,-5.63 -5.08,-7.82 -2.2,-2.19 -4.81,-3.88 -7.79,-5.09 -3,-1.22 -6.29,-1.82 -9.92,-1.82 -2.03,0 -4.06,0.27 -6.01,0.79 -1.98,0.5 -3.82,1.24 -5.55,2.2 -1.75,0.95 -3.43,2.16 -5.08,3.64 -1.64,1.46 -3.19,3.22 -4.6,5.29l0 21.13c1.41,3.44 3.33,6.55 5.79,9.31 2.44,2.78 5.14,4.95 8.14,6.52 2.99,1.56 6.04,2.36 9.21,2.36zm15.58 37.77c-8.97,0 -16.77,-1.75 -23.38,-5.22 -6.61,-3.49 -11.72,-8.55 -15.34,-15.22l0 68.38 -44.86 0 0 -172.83 38.96 0 0 18.78c4.39,-6.66 9.88,-11.77 16.4,-15.32 6.54,-3.57 14.44,-5.36 23.73,-5.36 8.35,0 15.97,1.55 22.91,4.64 6.92,3.12 12.97,7.52 18.17,13.24 5.2,5.75 9.2,12.39 12.05,19.97 2.83,7.59 4.24,15.96 4.24,25.08 0,12.23 -2.28,23.14 -6.84,32.75 -4.58,9.6 -10.82,17.19 -18.77,22.75 -7.95,5.58 -17.03,8.36 -27.27,8.36z"/>
    <path class="fil1" d="M2332.36 1230.97l-44.87 0 0 -68.19c0,-5.97 -1.36,-10.32 -4.13,-13 -2.75,-2.69 -6.17,-4.03 -10.26,-4.03 -1.9,0 -4.21,0.67 -6.96,1.99 -2.76,1.36 -5.4,3.29 -7.91,5.82 -2.52,2.52 -4.49,5.51 -5.9,8.94l0 68.47 -44.87 0 0 -172.34 44.87 0 0 68.34c4.39,-6.66 10.18,-11.71 17.35,-15.2 7.15,-3.48 15.07,-5.23 23.72,-5.23 8.82,0 15.82,1.44 21.01,4.31 5.2,2.86 9.06,6.53 11.58,11.02 2.51,4.49 4.21,9.29 5.06,14.39 0.88,5.11 1.31,9.91 1.31,14.38l0 80.33z"/>
    <path class="fil1" d="M2419.94 1196.75c1.74,-1.18 3.16,-2.49 4.26,-3.9 1.09,-1.41 1.65,-2.86 1.65,-4.36l0 -8.7c-2.53,-0.89 -5.4,-1.63 -8.62,-2.23 -3.24,-0.6 -6.11,-0.89 -8.61,-0.89 -5.36,0 -9.89,1.25 -13.58,3.79 -3.72,2.54 -5.56,5.73 -5.56,9.61 0,2.08 0.63,3.98 1.89,5.69 1.27,1.7 3,3.04 5.2,4.02 2.19,0.96 4.71,1.43 7.54,1.43 2.7,0 5.49,-0.4 8.4,-1.22 2.9,-0.81 5.39,-1.88 7.43,-3.24zm-72.72 -2.63c0,-8.19 2.28,-15.44 6.85,-21.69 4.56,-6.27 10.91,-11.19 19.01,-14.75 8.11,-3.55 17.35,-5.34 27.74,-5.34 4.89,0 9.49,0.41 13.81,1.19 4.33,0.79 8.06,1.96 11.22,3.54l0 -3.78c0,-5.61 -1.69,-9.73 -5.08,-12.47 -3.39,-2.69 -8.86,-4.06 -16.4,-4.06 -6.93,0 -13.43,1.15 -19.49,3.42 -6.05,2.29 -12.38,5.65 -19.01,10.04l-12.99 -27.85c8.35,-5.36 17.13,-9.33 26.34,-11.93 9.2,-2.59 19.08,-3.9 29.62,-3.9 19.67,0 34.9,4.35 45.68,13.03 10.79,8.69 16.18,21.54 16.18,38.59l0 23.51c0,4.15 0.63,7.03 1.88,8.64 1.26,1.62 3.46,2.58 6.61,2.89l0 37.77c-3.62,0.79 -7.04,1.38 -10.26,1.77 -3.23,0.39 -6.11,0.58 -8.61,0.58 -8.04,0 -14.14,-1.44 -18.31,-4.35 -4.17,-2.91 -6.88,-7.21 -8.14,-12.87l-0.94 -4.49c-5.52,7.08 -11.89,12.48 -19.12,16.18 -7.25,3.68 -14.97,5.53 -23.16,5.53 -8.18,0 -15.57,-1.7 -22.17,-5.09 -6.61,-3.4 -11.82,-8.09 -15.6,-14.04 -3.76,-5.96 -5.66,-12.64 -5.66,-20.07z"/>
    <path class="fil1" d="M2503.28 1147.16c0,10.07 1.73,19.71 5.2,28.91 3.46,9.21 8.3,17.44 14.52,24.68 6.21,7.24 13.62,12.98 22.19,17.24 8.58,4.25 17.97,6.37 28.21,6.37 10.39,0 19.91,-2.2 28.56,-6.61 8.66,-4.41 16.07,-10.31 22.21,-17.71 6.12,-7.4 10.85,-15.65 14.17,-24.79 3.29,-9.14 4.95,-18.5 4.95,-28.09 0,-10.08 -1.75,-19.72 -5.2,-28.93 -3.46,-9.21 -8.34,-17.42 -14.64,-24.67 -6.3,-7.23 -13.73,-12.97 -22.3,-17.23 -8.59,-4.25 -17.84,-6.37 -27.75,-6.37 -10.55,0 -20.1,2.2 -28.68,6.6 -8.6,4.42 -15.95,10.32 -22.07,17.71 -6.15,7.39 -10.92,15.66 -14.29,24.79 -3.39,9.13 -5.08,18.5 -5.08,28.1zm70.12 85c-11.67,0 -22.27,-2.4 -31.87,-7.21 -9.6,-4.8 -17.86,-11.22 -24.79,-19.25 -6.92,-8.02 -12.28,-17.1 -16.06,-27.27 -3.78,-10.14 -5.66,-20.56 -5.66,-31.27 0,-11.19 1.97,-21.84 5.9,-32 3.93,-10.14 9.49,-19.2 16.64,-27.14 7.17,-7.96 15.51,-14.25 25.03,-18.9 9.52,-4.64 19.79,-6.96 30.81,-6.96 11.64,0 22.27,2.44 31.87,7.32 9.61,4.87 17.84,11.41 24.67,19.6 6.85,8.19 12.16,17.31 15.94,27.38 3.78,10.07 5.67,20.31 5.67,30.7 0,11.33 -1.97,22.06 -5.9,32.23 -3.94,10.14 -9.45,19.21 -16.53,27.15 -7.07,7.95 -15.39,14.19 -24.91,18.77 -9.51,4.56 -19.79,6.85 -30.81,6.85z"/>
    <path class="fil1" d="M2778.57 1190.43l0 -42.16c-2.2,-6.44 -5.9,-12.21 -11.1,-17.33 -5.19,-5.1 -11.02,-9.19 -17.46,-12.26 -6.46,-3.04 -12.92,-4.58 -19.38,-4.58 -7.54,0 -14.35,1.57 -20.4,4.71 -6.07,3.15 -11.3,7.39 -15.71,12.72 -4.41,5.34 -7.75,11.35 -10.03,18.02 -2.28,6.68 -3.43,13.56 -3.43,20.63 0,7.38 1.31,14.41 3.9,21.09 2.6,6.67 6.29,12.64 11.1,17.9 4.8,5.27 10.3,9.34 16.52,12.26 6.23,2.9 12.95,4.35 20.19,4.35 4.56,0 9.41,-0.89 14.52,-2.71 5.12,-1.81 10,-4.36 14.64,-7.66 4.65,-3.29 8.46,-7.11 11.45,-11.42 2.99,-4.32 4.72,-8.84 5.19,-13.56zm-105.76 -20.25c0,-11.46 2.48,-22 7.43,-31.59 4.96,-9.57 11.69,-17.31 20.18,-23.21 8.51,-5.89 18.18,-8.84 29.04,-8.84 11.02,0 20.78,2.95 29.28,8.85 8.51,5.92 15.1,12.88 19.83,20.9l0 -77.66 8.02 0 0 160.06c0,1.58 0.41,2.83 1.19,3.78 0.79,0.94 1.81,1.41 3.07,1.41l0 7.09c-1.88,0.15 -3.3,0.08 -4.26,-0.23 -2.2,-0.62 -4,-1.89 -5.41,-3.79 -1.42,-1.88 -2.13,-3.92 -2.13,-6.13l0 -14.88c-5.04,8.19 -11.88,14.8 -20.54,19.84 -8.67,5.05 -17.55,7.54 -26.69,7.54 -8.49,0 -16.36,-1.77 -23.6,-5.3 -7.24,-3.53 -13.5,-8.31 -18.77,-14.36 -5.29,-6.06 -9.38,-12.85 -12.29,-20.4 -2.9,-7.53 -4.35,-15.23 -4.35,-23.08z"/>
    <path class="fil1" d="M2824.6 1170.41c0,10.21 2.27,19.51 6.85,27.93 4.56,8.39 10.69,15.07 18.42,20.02 7.7,4.94 16.21,7.42 25.5,7.42 9.43,0 18.02,-2.52 25.72,-7.54 7.71,-5.04 13.89,-11.81 18.54,-20.38 4.64,-8.56 6.95,-17.87 6.95,-27.92 0,-10.21 -2.31,-19.56 -6.95,-28.04 -4.65,-8.48 -10.83,-15.25 -18.54,-20.25 -7.7,-5.02 -16.21,-7.55 -25.5,-7.55 -9.12,0 -17.57,2.56 -25.37,7.66 -7.8,5.1 -14.02,11.94 -18.66,20.49 -4.65,8.58 -6.96,17.96 -6.96,28.16zm50.99 62.92c-8.19,0 -15.88,-1.64 -23.14,-4.95 -7.22,-3.29 -13.54,-7.88 -18.87,-13.78 -5.35,-5.89 -9.54,-12.64 -12.53,-20.27 -2.99,-7.61 -4.47,-15.66 -4.47,-24.16 0,-8.64 1.52,-16.82 4.6,-24.5 3.07,-7.7 7.27,-14.5 12.63,-20.38 5.35,-5.9 11.64,-10.49 18.89,-13.79 7.23,-3.3 14.87,-4.96 22.89,-4.96 8.19,0 15.86,1.66 23.03,4.96 7.16,3.3 13.45,7.89 18.89,13.79 5.42,5.88 9.66,12.68 12.74,20.38 3.07,7.68 4.61,15.86 4.61,24.5 0,8.5 -1.5,16.55 -4.5,24.16 -2.98,7.63 -7.19,14.38 -12.62,20.27 -5.44,5.9 -11.73,10.49 -18.9,13.78 -7.15,3.31 -14.91,4.95 -23.25,4.95z"/>
    <path class="fil1" d="M3062.12 1230.97l-8.02 0 0 -68.33c0,-16.66 -2.41,-28.9 -7.21,-36.75 -4.81,-7.87 -12.38,-11.79 -22.79,-11.79 -7.39,0 -14.62,1.77 -21.7,5.3 -7.09,3.54 -13.27,8.33 -18.54,14.37 -5.27,6.05 -9.1,12.91 -11.46,20.61l0 76.59 -8.03 0 0 -122.53 7.8 0 0 30.63c3.31,-6.45 7.74,-12.1 13.34,-16.98 5.58,-4.85 11.84,-8.67 18.77,-11.42 6.93,-2.75 14,-4.13 21.24,-4.13 6.46,0 12,1.18 16.64,3.54 4.65,2.36 8.43,5.82 11.34,10.37 2.92,4.56 5.08,10.28 6.5,17.21 1.41,6.92 2.12,14.92 2.12,24.03l0 69.28z"/>
    <path class="fil1" d="M3148.76 1226.49c-0.3,0.15 -1.57,0.82 -3.78,2 -2.2,1.19 -4.99,2.29 -8.38,3.31 -3.37,1.02 -7.28,1.52 -11.68,1.52 -4.09,0 -7.87,-0.78 -11.33,-2.37 -3.47,-1.59 -6.22,-3.93 -8.26,-7.03 -2.07,-3.08 -3.08,-6.78 -3.08,-11.06l0 -97.34 -17.46 0 0 -7.09 17.46 0 0 -42.26 8.03 0 0 42.26 29.04 0 0 7.09 -29.04 0 0 96.2c0.32,4.6 2.05,8.1 5.19,10.48 3.16,2.38 6.78,3.58 10.86,3.58 5.21,0 9.64,-0.91 13.36,-2.72 3.68,-1.8 5.69,-2.86 6.01,-3.2l3.06 6.63z"/>
    <path class="fil1" d="M3166.71 1170.41c0,10.21 2.27,19.51 6.84,27.93 4.56,8.39 10.7,15.07 18.43,20.02 7.7,4.94 16.21,7.42 25.5,7.42 9.42,0 18.02,-2.52 25.72,-7.54 7.71,-5.04 13.89,-11.81 18.53,-20.38 4.65,-8.56 6.96,-17.87 6.96,-27.92 0,-10.21 -2.31,-19.56 -6.96,-28.04 -4.64,-8.48 -10.82,-15.25 -18.53,-20.25 -7.7,-5.02 -16.21,-7.55 -25.5,-7.55 -9.12,0 -17.58,2.56 -25.37,7.66 -7.8,5.1 -14.02,11.94 -18.66,20.49 -4.65,8.58 -6.96,17.96 -6.96,28.16zm50.99 62.92c-8.19,0 -15.89,-1.64 -23.14,-4.95 -7.23,-3.29 -13.54,-7.88 -18.87,-13.78 -5.36,-5.89 -9.54,-12.64 -12.53,-20.27 -3,-7.61 -4.48,-15.66 -4.48,-24.16 0,-8.64 1.53,-16.82 4.61,-24.5 3.06,-7.7 7.26,-14.5 12.62,-20.38 5.36,-5.9 11.65,-10.49 18.9,-13.79 7.22,-3.3 14.87,-4.96 22.89,-4.96 8.19,0 15.86,1.66 23.02,4.96 7.16,3.3 13.45,7.89 18.89,13.79 5.43,5.88 9.67,12.68 12.75,20.38 3.07,7.68 4.6,15.86 4.6,24.5 0,8.5 -1.49,16.55 -4.49,24.16 -2.98,7.63 -7.2,14.38 -12.62,20.27 -5.44,5.9 -11.73,10.49 -18.9,13.78 -7.16,3.31 -14.91,4.95 -23.25,4.95z"/>
    <path class="fil2" d="M2541.47 314.13c0,0 157.29,-44.47 239.47,-14.09 138.46,51.17 -34.42,767.57 -113.45,527.09 -56.3,-171.27 -129.04,-120.5 -129.04,-120.5 169.75,46.46 26.3,311.68 160.31,275.95 134.01,-35.72 294.8,-603.93 184.03,-721.85 -28.37,-30.19 -64.58,-41.42 -102.77,-41.42 -110.96,0 -238.55,94.82 -238.55,94.82z"/>
    <path class="fil3" d="M2210.97 276.8c-84.44,166.19 13.39,421.69 93.8,595.9 80.4,174.21 136.06,68.14 171.53,-46.91 34.85,-113.02 96.5,-76.38 96.5,-76.38 -59.8,-48.2 -98.02,-3.68 -128.49,40.82 -21.22,31 -38.71,61.98 -57.12,61.7 -26.47,-0.41 -174.89,-377.24 -106.54,-503.21 68.34,-125.95 257.29,-36.17 257.29,-36.17 -62.01,-60.44 -144.91,-102.38 -214.32,-102.36 -47.57,0 -88.81,19.69 -112.65,66.61z"/>
    <path class="fil4" d="M2374.89 354.3c0,0 -63.83,-20.36 -69.52,51.08 -5.2,65.25 17.03,126.96 17.03,126.96 0,0 -27.67,-163.14 52.49,-178.04z"/>
    <path class="fil1" d="M1975.63 1324.12l9.54 0c3.04,0 5.37,-0.72 6.99,-2.17 1.59,-1.45 2.38,-3.48 2.38,-6.07 0,-2.58 -0.78,-4.63 -2.37,-6.15 -1.6,-1.55 -3.88,-2.31 -6.8,-2.36l-9.74 0 0 16.75zm0 2.67l0 15.16 -3.15 0 0 -37.24 12.69 0c3.86,0 6.93,1 9.16,2.97 2.25,1.98 3.36,4.7 3.36,8.16 0,3.5 -1.07,6.2 -3.22,8.09 -2.17,1.91 -5.29,2.86 -9.39,2.86l-9.45 0z"/>
    <path class="fil1" d="M2018.3 1323.77l9.64 0c2.65,0 4.77,-0.75 6.36,-2.25 1.62,-1.52 2.42,-3.46 2.42,-5.84 0,-2.64 -0.84,-4.67 -2.5,-6.14 -1.68,-1.43 -4.02,-2.17 -7.04,-2.17l-8.88 0 0 16.4zm10.81 2.65l-10.81 0 0 15.54 -3.18 0 0 -37.24 12.11 0c3.97,0 7.07,0.96 9.32,2.89 2.23,1.92 3.34,4.61 3.34,8.07 0,2.38 -0.71,4.48 -2.1,6.31 -1.4,1.82 -3.28,3.08 -5.62,3.79l9.3 15.84 0 0.34 -3.35 0 -9.01 -15.54z"/>
    <path class="fil1" d="M2083.3 1321.32c0,-4.48 -1,-7.99 -3.04,-10.55 -2.02,-2.52 -4.8,-3.81 -8.32,-3.81 -3.48,0 -6.24,1.29 -8.29,3.83 -2.06,2.55 -3.08,6.12 -3.08,10.68l0 3.88c0,4.42 1.02,7.92 3.07,10.5 2.03,2.59 4.82,3.88 8.34,3.88 3.55,0 6.35,-1.27 8.33,-3.82 2,-2.55 2.99,-6.11 2.99,-10.66l0 -3.93zm3.15 4.03c0,3.43 -0.58,6.44 -1.77,9.04 -1.18,2.59 -2.88,4.58 -5.09,5.98 -2.2,1.4 -4.72,2.11 -7.61,2.11 -4.35,0 -7.87,-1.58 -10.53,-4.68 -2.7,-3.12 -4.02,-7.32 -4.02,-12.6l0 -3.83c0,-3.4 0.6,-6.4 1.79,-9.02 1.21,-2.61 2.89,-4.63 5.11,-6.03 2.19,-1.42 4.73,-2.12 7.61,-2.12 2.85,0 5.37,0.69 7.57,2.08 2.19,1.38 3.88,3.32 5.08,5.86 1.2,2.51 1.81,5.44 1.86,8.77l0 4.44z"/>
    <path class="fil1" d="M2108 1307.37l0 31.92 7.06 0c3.91,0 7.07,-1.3 9.44,-3.9 2.37,-2.61 3.54,-6.12 3.54,-10.56l0 -3.28c0,-4.28 -1.15,-7.71 -3.48,-10.29 -2.35,-2.57 -5.43,-3.86 -9.25,-3.89l-7.31 0zm-3.15 34.58l0 -37.23 10.42 0c3.04,0 5.78,0.68 8.2,2.08 2.41,1.39 4.3,3.37 5.67,5.98 1.34,2.58 2.03,5.52 2.03,8.83l0 3.45c0,3.31 -0.69,6.27 -2.03,8.84 -1.34,2.58 -3.25,4.56 -5.69,5.96 -2.44,1.4 -5.26,2.09 -8.42,2.09l-10.18 0z"/>
    <path class="fil1" d="M2175.27 1304.72l0 25.42c-0.01,2.51 -0.57,4.69 -1.66,6.54 -1.09,1.87 -2.63,3.28 -4.61,4.3 -2,0.99 -4.27,1.49 -6.84,1.49 -3.93,0 -7.07,-1.07 -9.43,-3.21 -2.37,-2.14 -3.58,-5.12 -3.68,-8.9l0 -25.64 3.12 0 0 25.2c0,3.12 0.9,5.56 2.7,7.29 1.78,1.73 4.21,2.6 7.29,2.6 3.06,0 5.48,-0.88 7.27,-2.61 1.78,-1.74 2.66,-4.17 2.66,-7.26l0 -25.22 3.18 0z"/>
    <polygon class="fil1" points="2219.79,1307.37 2207.02,1307.37 2207.02,1341.95 2203.87,1341.95 2203.87,1307.37 2191.14,1307.37 2191.14,1304.72 2219.79,1304.72 "/>
    <path class="fil1" d="M2259.94 1321.32c0,-4.48 -1.02,-7.99 -3.06,-10.55 -2.02,-2.52 -4.79,-3.81 -8.32,-3.81 -3.46,0 -6.24,1.29 -8.27,3.83 -2.07,2.55 -3.1,6.12 -3.1,10.68l0 3.88c0,4.42 1.03,7.92 3.08,10.5 2.04,2.59 4.83,3.88 8.34,3.88 3.55,0 6.34,-1.27 8.33,-3.82 2,-2.55 3,-6.11 3,-10.66l0 -3.93zm3.15 4.03c0,3.43 -0.6,6.44 -1.78,9.04 -1.19,2.59 -2.88,4.58 -5.09,5.98 -2.19,1.4 -4.73,2.11 -7.61,2.11 -4.35,0 -7.86,-1.58 -10.54,-4.68 -2.68,-3.12 -4.02,-7.32 -4.02,-12.6l0 -3.83c0,-3.4 0.62,-6.4 1.8,-9.02 1.2,-2.61 2.9,-4.63 5.11,-6.03 2.2,-1.42 4.74,-2.12 7.6,-2.12 2.86,0 5.38,0.69 7.58,2.08 2.2,1.38 3.88,3.32 5.07,5.86 1.2,2.51 1.83,5.44 1.88,8.77l0 4.44z"/>
    <path class="fil1" d="M2302.56 1332.8c0,-2.07 -0.73,-3.71 -2.18,-4.91 -1.45,-1.18 -4.1,-2.34 -7.96,-3.42 -3.85,-1.09 -6.65,-2.27 -8.43,-3.54 -2.53,-1.8 -3.79,-4.17 -3.79,-7.1 0,-2.84 1.17,-5.16 3.52,-6.94 2.34,-1.79 5.34,-2.68 8.99,-2.68 2.47,0 4.69,0.47 6.64,1.43 1.95,0.95 3.48,2.29 4.55,3.99 1.06,1.7 1.6,3.6 1.6,5.69l-3.18 0c0,-2.55 -0.86,-4.59 -2.61,-6.13 -1.72,-1.55 -4.07,-2.32 -7,-2.32 -2.84,0 -5.12,0.64 -6.79,1.9 -1.69,1.27 -2.54,2.93 -2.54,4.99 0,1.9 0.76,3.43 2.28,4.63 1.5,1.2 3.94,2.25 7.29,3.15 3.33,0.94 5.86,1.87 7.59,2.85 1.73,0.99 3.01,2.16 3.89,3.51 0.86,1.37 1.31,2.99 1.31,4.84 0,2.93 -1.17,5.29 -3.51,7.06 -2.36,1.77 -5.44,2.67 -9.28,2.67 -2.64,0 -5.05,-0.48 -7.24,-1.41 -2.17,-0.95 -3.83,-2.25 -4.98,-3.94 -1.13,-1.7 -1.7,-3.62 -1.7,-5.8l3.14 0c0,2.62 0.97,4.69 2.94,6.21 1.97,1.52 4.58,2.27 7.84,2.27 2.9,0 5.23,-0.64 6.99,-1.92 1.74,-1.27 2.62,-2.97 2.62,-5.08z"/>
    <path class="fil1" d="M2370.57 1321.32c0,-4.48 -1.02,-7.99 -3.05,-10.55 -2.03,-2.52 -4.8,-3.81 -8.33,-3.81 -3.46,0 -6.23,1.29 -8.27,3.83 -2.07,2.55 -3.1,6.12 -3.1,10.68l0 3.88c0,4.42 1.03,7.92 3.08,10.5 2.04,2.59 4.83,3.88 8.35,3.88 3.54,0 6.33,-1.27 8.32,-3.82 2,-2.55 3,-6.11 3,-10.66l0 -3.93zm3.15 4.03c0,3.43 -0.6,6.44 -1.78,9.04 -1.19,2.59 -2.88,4.58 -5.09,5.98 -2.19,1.4 -4.73,2.11 -7.6,2.11 -4.36,0 -7.87,-1.58 -10.55,-4.68 -2.68,-3.12 -4.02,-7.32 -4.02,-12.6l0 -3.83c0,-3.4 0.62,-6.4 1.8,-9.02 1.2,-2.61 2.9,-4.63 5.11,-6.03 2.2,-1.42 4.74,-2.12 7.6,-2.12 2.86,0 5.38,0.69 7.59,2.08 2.18,1.38 3.87,3.32 5.06,5.86 1.2,2.51 1.83,5.44 1.88,8.77l0 4.44z"/>
    <path class="fil1" d="M2395.26 1307.37l0 31.92 7.06 0c3.92,0 7.08,-1.3 9.44,-3.9 2.38,-2.61 3.55,-6.12 3.55,-10.56l0 -3.28c0,-4.28 -1.16,-7.71 -3.49,-10.29 -2.34,-2.57 -5.43,-3.86 -9.24,-3.89l-7.32 0zm-3.15 34.58l0 -37.23 10.42 0c3.04,0 5.79,0.68 8.2,2.08 2.42,1.39 4.31,3.37 5.68,5.98 1.34,2.58 2.02,5.52 2.02,8.83l0 3.45c0,3.31 -0.68,6.27 -2.02,8.84 -1.34,2.58 -3.25,4.56 -5.69,5.96 -2.44,1.4 -5.26,2.09 -8.43,2.09l-10.18 0z"/>
    <path class="fil1" d="M2461.26 1321.32c0,-4.48 -1.01,-7.99 -3.04,-10.55 -2.02,-2.52 -4.8,-3.81 -8.33,-3.81 -3.47,0 -6.24,1.29 -8.28,3.83 -2.07,2.55 -3.09,6.12 -3.09,10.68l0 3.88c0,4.42 1.02,7.92 3.07,10.5 2.04,2.59 4.83,3.88 8.34,3.88 3.56,0 6.35,-1.27 8.33,-3.82 2.01,-2.55 3,-6.11 3,-10.66l0 -3.93zm3.15 4.03c0,3.43 -0.58,6.44 -1.77,9.04 -1.19,2.59 -2.89,4.58 -5.09,5.98 -2.2,1.4 -4.73,2.11 -7.62,2.11 -4.35,0 -7.86,-1.58 -10.53,-4.68 -2.69,-3.12 -4.02,-7.32 -4.02,-12.6l0 -3.83c0,-3.4 0.6,-6.4 1.79,-9.02 1.21,-2.61 2.9,-4.63 5.12,-6.03 2.19,-1.42 4.73,-2.12 7.6,-2.12 2.86,0 5.37,0.69 7.58,2.08 2.19,1.38 3.87,3.32 5.07,5.86 1.2,2.51 1.82,5.44 1.87,8.77l0 4.44z"/>
    <polygon class="fil1" points="2510.54,1341.95 2507.39,1341.95 2485.98,1310.08 2485.98,1341.95 2482.81,1341.95 2482.81,1304.71 2485.98,1304.71 2507.42,1336.61 2507.42,1304.71 2510.54,1304.71 "/>
    <polygon class="fil1" points="2555.74,1307.37 2542.97,1307.37 2542.97,1341.95 2539.82,1341.95 2539.82,1307.37 2527.09,1307.37 2527.09,1304.72 2555.74,1304.72 "/>
    <path class="fil1" d="M2595.89 1321.32c0,-4.48 -1.02,-7.99 -3.06,-10.55 -2.02,-2.52 -4.79,-3.81 -8.32,-3.81 -3.46,0 -6.22,1.29 -8.27,3.83 -2.07,2.55 -3.08,6.12 -3.08,10.68l0 3.88c0,4.42 1.01,7.92 3.06,10.5 2.04,2.59 4.83,3.88 8.34,3.88 3.56,0 6.35,-1.27 8.33,-3.82 2.01,-2.55 3,-6.11 3,-10.66l0 -3.93zm3.15 4.03c0,3.43 -0.6,6.44 -1.78,9.04 -1.19,2.59 -2.88,4.58 -5.08,5.98 -2.21,1.4 -4.73,2.11 -7.62,2.11 -4.35,0 -7.86,-1.58 -10.54,-4.68 -2.68,-3.12 -4,-7.32 -4,-12.6l0 -3.83c0,-3.4 0.6,-6.4 1.78,-9.02 1.2,-2.61 2.9,-4.63 5.12,-6.03 2.19,-1.42 4.73,-2.12 7.59,-2.12 2.87,0 5.38,0.69 7.58,2.08 2.19,1.38 3.88,3.32 5.08,5.86 1.19,2.51 1.82,5.44 1.87,8.77l0 4.44z"/>
    <polygon class="fil1" points="2661.2,1324.1 2643.78,1324.1 2643.78,1339.3 2663.81,1339.3 2663.81,1341.95 2640.63,1341.95 2640.63,1304.71 2663.68,1304.71 2663.68,1307.37 2643.78,1307.37 2643.78,1321.45 2661.2,1321.45 "/>
    <polygon class="fil1" points="2731.72,1341.95 2728.55,1341.95 2728.55,1324.1 2707.27,1324.1 2707.27,1341.95 2704.12,1341.95 2704.12,1304.71 2707.27,1304.71 2707.27,1321.44 2728.55,1321.44 2728.55,1304.71 2731.72,1304.71 "/>
    <path class="fil1" d="M2776.04 1321.32c0,-4.48 -1.02,-7.99 -3.05,-10.55 -2.03,-2.52 -4.8,-3.81 -8.33,-3.81 -3.46,0 -6.22,1.29 -8.27,3.83 -2.07,2.55 -3.09,6.12 -3.09,10.68l0 3.88c0,4.42 1.02,7.92 3.08,10.5 2.03,2.59 4.82,3.88 8.33,3.88 3.56,0 6.35,-1.27 8.33,-3.82 2.01,-2.55 3,-6.11 3,-10.66l0 -3.93zm3.15 4.03c0,3.43 -0.6,6.44 -1.78,9.04 -1.19,2.59 -2.87,4.58 -5.08,5.98 -2.2,1.4 -4.73,2.11 -7.62,2.11 -4.35,0 -7.86,-1.58 -10.54,-4.68 -2.68,-3.12 -4,-7.32 -4,-12.6l0 -3.83c0,-3.4 0.6,-6.4 1.78,-9.02 1.2,-2.61 2.9,-4.63 5.12,-6.03 2.19,-1.42 4.73,-2.12 7.59,-2.12 2.87,0 5.38,0.69 7.59,2.08 2.19,1.38 3.87,3.32 5.07,5.86 1.19,2.51 1.82,5.44 1.87,8.77l0 4.44z"/>
    <path class="fil1" d="M2818.66 1332.8c0,-2.07 -0.74,-3.71 -2.18,-4.91 -1.45,-1.18 -4.1,-2.34 -7.96,-3.42 -3.85,-1.09 -6.65,-2.27 -8.44,-3.54 -2.52,-1.8 -3.78,-4.17 -3.78,-7.1 0,-2.84 1.17,-5.16 3.52,-6.94 2.34,-1.79 5.34,-2.68 8.99,-2.68 2.47,0 4.69,0.47 6.64,1.43 1.94,0.95 3.46,2.29 4.53,3.99 1.08,1.7 1.62,3.6 1.62,5.69l-3.18 0c0,-2.55 -0.86,-4.59 -2.6,-6.13 -1.74,-1.55 -4.08,-2.32 -7.01,-2.32 -2.84,0 -5.12,0.64 -6.8,1.9 -1.69,1.27 -2.54,2.93 -2.54,4.99 0,1.9 0.76,3.43 2.29,4.63 1.5,1.2 3.93,2.25 7.29,3.15 3.33,0.94 5.86,1.87 7.57,2.85 1.75,0.99 3.03,2.16 3.91,3.51 0.86,1.37 1.3,2.99 1.3,4.84 0,2.93 -1.17,5.29 -3.52,7.06 -2.34,1.77 -5.44,2.67 -9.26,2.67 -2.64,0 -5.05,-0.48 -7.24,-1.41 -2.19,-0.95 -3.85,-2.25 -4.98,-3.94 -1.13,-1.7 -1.7,-3.62 -1.7,-5.8l3.14 0c0,2.62 0.98,4.69 2.94,6.21 1.97,1.52 4.58,2.27 7.84,2.27 2.89,0 5.22,-0.64 6.97,-1.92 1.76,-1.27 2.64,-2.97 2.64,-5.08z"/>
    <path class="fil1" d="M2842.22 1324.12l9.56 0c3.04,0 5.37,-0.72 6.97,-2.17 1.61,-1.45 2.4,-3.48 2.4,-6.07 0,-2.58 -0.79,-4.63 -2.38,-6.15 -1.61,-1.55 -3.87,-2.31 -6.8,-2.36l-9.75 0 0 16.75zm0 2.67l0 15.16 -3.15 0 0 -37.24 12.71 0c3.86,0 6.92,1 9.16,2.97 2.25,1.98 3.36,4.7 3.36,8.16 0,3.5 -1.07,6.2 -3.23,8.09 -2.16,1.91 -5.27,2.86 -9.37,2.86l-9.48 0z"/>
    <polygon class="fil1" points="2885.63,1341.96 2882.48,1341.96 2882.48,1304.72 2885.63,1304.72 "/>
    <polygon class="fil1" points="2931.5,1307.37 2918.74,1307.37 2918.74,1341.95 2915.58,1341.95 2915.58,1307.37 2902.85,1307.37 2902.85,1304.72 2931.5,1304.72 "/>
    <path class="fil1" d="M2950.13 1328.84l14.92 0 -7.46 -20.28 -7.46 20.28zm15.93 2.65l-16.91 0 -3.83 10.46 -3.31 0 14.1 -37.23 3 0 14.08 37.23 -3.27 0 -3.86 -10.46z"/>
    <polygon class="fil1" points="2992.3,1339.3 3010.68,1339.3 3010.68,1341.95 2989.12,1341.95 2989.12,1304.72 2992.3,1304.72 "/>
    <path class="fil1" d="M3031.87 1328.84l14.92 0 -7.46 -20.28 -7.46 20.28zm15.93 2.65l-16.9 0 -3.84 10.46 -3.31 0 14.1 -37.23 3 0 14.08 37.23 -3.27 0 -3.86 -10.46z"/>
    <path class="fil1" d="M3073.99 1323.77l9.63 0c2.66,0 4.76,-0.75 6.36,-2.25 1.62,-1.52 2.42,-3.46 2.42,-5.84 0,-2.64 -0.84,-4.67 -2.5,-6.14 -1.68,-1.43 -4.02,-2.17 -7.04,-2.17l-8.87 0 0 16.4zm10.81 2.65l-10.81 0 0 15.54 -3.19 0 0 -37.24 12.11 0c3.98,0 7.06,0.96 9.3,2.89 2.24,1.92 3.35,4.61 3.35,8.07 0,2.38 -0.69,4.48 -2.1,6.31 -1.38,1.82 -3.27,3.08 -5.62,3.79l9.31 15.84 0 0.34 -3.34 0 -9.01 -15.54z"/>
   </g>
  </g>
 </g>
</svg>
